<mxfile host="app.diagrams.net" modified="2023-07-19T04:55:50.295Z" agent="Mozilla/5.0 (Windows NT 10.0; Win64; x64) AppleWebKit/537.36 (KHTML, like Gecko) Chrome/114.0.0.0 Safari/537.36" etag="ru1D1SR74mI0gQGE4zay" version="21.6.2" type="github">
  <diagram name="Page-1" id="e56a1550-8fbb-45ad-956c-1786394a9013">
    <mxGraphModel dx="2642" dy="1932" grid="1" gridSize="10" guides="1" tooltips="1" connect="1" arrows="1" fold="1" page="1" pageScale="1" pageWidth="1100" pageHeight="850" background="none" math="0" shadow="0">
      <root>
        <mxCell id="0" />
        <mxCell id="1" parent="0" />
        <mxCell id="s8aTRHkVXZxyGGqHwzvx-2" value="병원시술 대상자" style="swimlane;html=1;fontStyle=0;childLayout=stackLayout;horizontal=1;startSize=26;fillColor=#B2C9AB;horizontalStack=0;resizeParent=1;resizeLast=0;collapsible=1;marginBottom=0;swimlaneFillColor=#ffffff;align=center;rounded=0;shadow=0;comic=0;labelBackgroundColor=none;strokeWidth=1;fontFamily=Verdana;fontSize=14;strokeColor=#788AA3;fontColor=#46495D;" parent="1" vertex="1">
          <mxGeometry x="460" y="20" width="280" height="482" as="geometry" />
        </mxCell>
        <mxCell id="s8aTRHkVXZxyGGqHwzvx-3" value="병원시술ID" style="shape=partialRectangle;top=0;left=0;right=0;bottom=1;html=1;align=left;verticalAlign=middle;fillColor=none;spacingLeft=34;spacingRight=4;whiteSpace=wrap;overflow=hidden;rotatable=0;points=[[0,0.5],[1,0.5]];portConstraint=eastwest;dropTarget=0;fontStyle=5;labelBackgroundColor=none;strokeColor=#788AA3;fontColor=#46495D;" parent="s8aTRHkVXZxyGGqHwzvx-2" vertex="1">
          <mxGeometry y="26" width="280" height="30" as="geometry" />
        </mxCell>
        <mxCell id="s8aTRHkVXZxyGGqHwzvx-4" value="PK, FK" style="shape=partialRectangle;top=0;left=0;bottom=0;html=1;fillColor=none;align=left;verticalAlign=middle;spacingLeft=4;spacingRight=4;whiteSpace=wrap;overflow=hidden;rotatable=0;points=[];portConstraint=eastwest;part=1;labelBackgroundColor=none;strokeColor=#788AA3;fontColor=#46495D;" parent="s8aTRHkVXZxyGGqHwzvx-3" vertex="1" connectable="0">
          <mxGeometry width="30" height="30" as="geometry" />
        </mxCell>
        <mxCell id="s8aTRHkVXZxyGGqHwzvx-9" value="성별&amp;nbsp;- 다중옵션" style="shape=partialRectangle;top=0;left=0;right=0;bottom=0;html=1;align=left;verticalAlign=top;fillColor=none;spacingLeft=34;spacingRight=4;whiteSpace=wrap;overflow=hidden;rotatable=0;points=[[0,0.5],[1,0.5]];portConstraint=eastwest;dropTarget=0;labelBackgroundColor=none;strokeColor=#788AA3;fontColor=#46495D;" parent="s8aTRHkVXZxyGGqHwzvx-2" vertex="1">
          <mxGeometry y="56" width="280" height="26" as="geometry" />
        </mxCell>
        <mxCell id="s8aTRHkVXZxyGGqHwzvx-10" value="" style="shape=partialRectangle;top=0;left=0;bottom=0;html=1;fillColor=none;align=left;verticalAlign=top;spacingLeft=4;spacingRight=4;whiteSpace=wrap;overflow=hidden;rotatable=0;points=[];portConstraint=eastwest;part=1;labelBackgroundColor=none;strokeColor=#788AA3;fontColor=#46495D;" parent="s8aTRHkVXZxyGGqHwzvx-9" vertex="1" connectable="0">
          <mxGeometry width="30" height="26" as="geometry" />
        </mxCell>
        <mxCell id="s8aTRHkVXZxyGGqHwzvx-5" value="연령 그룹&amp;nbsp;- 다중옵션" style="shape=partialRectangle;top=0;left=0;right=0;bottom=0;html=1;align=left;verticalAlign=top;fillColor=none;spacingLeft=34;spacingRight=4;whiteSpace=wrap;overflow=hidden;rotatable=0;points=[[0,0.5],[1,0.5]];portConstraint=eastwest;dropTarget=0;labelBackgroundColor=none;strokeColor=#788AA3;fontColor=#46495D;" parent="s8aTRHkVXZxyGGqHwzvx-2" vertex="1">
          <mxGeometry y="82" width="280" height="26" as="geometry" />
        </mxCell>
        <mxCell id="s8aTRHkVXZxyGGqHwzvx-6" value="" style="shape=partialRectangle;top=0;left=0;bottom=0;html=1;fillColor=none;align=left;verticalAlign=top;spacingLeft=4;spacingRight=4;whiteSpace=wrap;overflow=hidden;rotatable=0;points=[];portConstraint=eastwest;part=1;labelBackgroundColor=none;strokeColor=#788AA3;fontColor=#46495D;" parent="s8aTRHkVXZxyGGqHwzvx-5" vertex="1" connectable="0">
          <mxGeometry width="30" height="26" as="geometry" />
        </mxCell>
        <mxCell id="Vb2O8qSX6tOqTRUZdygF-160" value="피부타입(ex. DS, NS, OS, ...)&amp;nbsp;- 다중옵션" style="shape=partialRectangle;top=0;left=0;right=0;bottom=0;html=1;align=left;verticalAlign=top;fillColor=none;spacingLeft=34;spacingRight=4;whiteSpace=wrap;overflow=hidden;rotatable=0;points=[[0,0.5],[1,0.5]];portConstraint=eastwest;dropTarget=0;labelBackgroundColor=none;strokeColor=#788AA3;fontColor=#46495D;" vertex="1" parent="s8aTRHkVXZxyGGqHwzvx-2">
          <mxGeometry y="108" width="280" height="26" as="geometry" />
        </mxCell>
        <mxCell id="Vb2O8qSX6tOqTRUZdygF-161" value="" style="shape=partialRectangle;top=0;left=0;bottom=0;html=1;fillColor=none;align=left;verticalAlign=top;spacingLeft=4;spacingRight=4;whiteSpace=wrap;overflow=hidden;rotatable=0;points=[];portConstraint=eastwest;part=1;labelBackgroundColor=none;strokeColor=#788AA3;fontColor=#46495D;" vertex="1" connectable="0" parent="Vb2O8qSX6tOqTRUZdygF-160">
          <mxGeometry width="30" height="26" as="geometry" />
        </mxCell>
        <mxCell id="s8aTRHkVXZxyGGqHwzvx-7" value="피부타입 옵션1&amp;nbsp;- 다중옵션" style="shape=partialRectangle;top=0;left=0;right=0;bottom=0;html=1;align=left;verticalAlign=top;fillColor=none;spacingLeft=34;spacingRight=4;whiteSpace=wrap;overflow=hidden;rotatable=0;points=[[0,0.5],[1,0.5]];portConstraint=eastwest;dropTarget=0;labelBackgroundColor=none;strokeColor=#788AA3;fontColor=#46495D;" parent="s8aTRHkVXZxyGGqHwzvx-2" vertex="1">
          <mxGeometry y="134" width="280" height="26" as="geometry" />
        </mxCell>
        <mxCell id="s8aTRHkVXZxyGGqHwzvx-8" value="" style="shape=partialRectangle;top=0;left=0;bottom=0;html=1;fillColor=none;align=left;verticalAlign=top;spacingLeft=4;spacingRight=4;whiteSpace=wrap;overflow=hidden;rotatable=0;points=[];portConstraint=eastwest;part=1;labelBackgroundColor=none;strokeColor=#788AA3;fontColor=#46495D;" parent="s8aTRHkVXZxyGGqHwzvx-7" vertex="1" connectable="0">
          <mxGeometry width="30" height="26" as="geometry" />
        </mxCell>
        <mxCell id="s8aTRHkVXZxyGGqHwzvx-17" value="피부타입 옵션2&amp;nbsp;- 다중옵션" style="shape=partialRectangle;top=0;left=0;right=0;bottom=0;html=1;align=left;verticalAlign=top;fillColor=none;spacingLeft=34;spacingRight=4;whiteSpace=wrap;overflow=hidden;rotatable=0;points=[[0,0.5],[1,0.5]];portConstraint=eastwest;dropTarget=0;labelBackgroundColor=none;strokeColor=#788AA3;fontColor=#46495D;" parent="s8aTRHkVXZxyGGqHwzvx-2" vertex="1">
          <mxGeometry y="160" width="280" height="26" as="geometry" />
        </mxCell>
        <mxCell id="s8aTRHkVXZxyGGqHwzvx-18" value="" style="shape=partialRectangle;top=0;left=0;bottom=0;html=1;fillColor=none;align=left;verticalAlign=top;spacingLeft=4;spacingRight=4;whiteSpace=wrap;overflow=hidden;rotatable=0;points=[];portConstraint=eastwest;part=1;labelBackgroundColor=none;strokeColor=#788AA3;fontColor=#46495D;" parent="s8aTRHkVXZxyGGqHwzvx-17" vertex="1" connectable="0">
          <mxGeometry width="30" height="26" as="geometry" />
        </mxCell>
        <mxCell id="s8aTRHkVXZxyGGqHwzvx-21" value="피부타입 옵션3&amp;nbsp;- 다중옵션" style="shape=partialRectangle;top=0;left=0;right=0;bottom=0;html=1;align=left;verticalAlign=top;fillColor=none;spacingLeft=34;spacingRight=4;whiteSpace=wrap;overflow=hidden;rotatable=0;points=[[0,0.5],[1,0.5]];portConstraint=eastwest;dropTarget=0;labelBackgroundColor=none;strokeColor=#788AA3;fontColor=#46495D;" parent="s8aTRHkVXZxyGGqHwzvx-2" vertex="1">
          <mxGeometry y="186" width="280" height="26" as="geometry" />
        </mxCell>
        <mxCell id="s8aTRHkVXZxyGGqHwzvx-22" value="" style="shape=partialRectangle;top=0;left=0;bottom=0;html=1;fillColor=none;align=left;verticalAlign=top;spacingLeft=4;spacingRight=4;whiteSpace=wrap;overflow=hidden;rotatable=0;points=[];portConstraint=eastwest;part=1;labelBackgroundColor=none;strokeColor=#788AA3;fontColor=#46495D;" parent="s8aTRHkVXZxyGGqHwzvx-21" vertex="1" connectable="0">
          <mxGeometry width="30" height="26" as="geometry" />
        </mxCell>
        <mxCell id="suNme6-eA1xpTHc4A4N6-21" value="트러블(상/중/하)" style="shape=partialRectangle;top=0;left=0;right=0;bottom=0;html=1;align=left;verticalAlign=top;fillColor=none;spacingLeft=34;spacingRight=4;whiteSpace=wrap;overflow=hidden;rotatable=0;points=[[0,0.5],[1,0.5]];portConstraint=eastwest;dropTarget=0;labelBackgroundColor=none;strokeColor=#788AA3;fontColor=#46495D;" parent="s8aTRHkVXZxyGGqHwzvx-2" vertex="1">
          <mxGeometry y="212" width="280" height="26" as="geometry" />
        </mxCell>
        <mxCell id="suNme6-eA1xpTHc4A4N6-22" value="" style="shape=partialRectangle;top=0;left=0;bottom=0;html=1;fillColor=none;align=left;verticalAlign=top;spacingLeft=4;spacingRight=4;whiteSpace=wrap;overflow=hidden;rotatable=0;points=[];portConstraint=eastwest;part=1;labelBackgroundColor=none;strokeColor=#788AA3;fontColor=#46495D;" parent="suNme6-eA1xpTHc4A4N6-21" vertex="1" connectable="0">
          <mxGeometry width="30" height="26" as="geometry" />
        </mxCell>
        <mxCell id="suNme6-eA1xpTHc4A4N6-39" value="모공(상/중/하)" style="shape=partialRectangle;top=0;left=0;right=0;bottom=0;html=1;align=left;verticalAlign=top;fillColor=none;spacingLeft=34;spacingRight=4;whiteSpace=wrap;overflow=hidden;rotatable=0;points=[[0,0.5],[1,0.5]];portConstraint=eastwest;dropTarget=0;labelBackgroundColor=none;strokeColor=#788AA3;fontColor=#46495D;" parent="s8aTRHkVXZxyGGqHwzvx-2" vertex="1">
          <mxGeometry y="238" width="280" height="26" as="geometry" />
        </mxCell>
        <mxCell id="suNme6-eA1xpTHc4A4N6-40" value="" style="shape=partialRectangle;top=0;left=0;bottom=0;html=1;fillColor=none;align=left;verticalAlign=top;spacingLeft=4;spacingRight=4;whiteSpace=wrap;overflow=hidden;rotatable=0;points=[];portConstraint=eastwest;part=1;labelBackgroundColor=none;strokeColor=#788AA3;fontColor=#46495D;" parent="suNme6-eA1xpTHc4A4N6-39" vertex="1" connectable="0">
          <mxGeometry width="30" height="26" as="geometry" />
        </mxCell>
        <mxCell id="suNme6-eA1xpTHc4A4N6-37" value="다크서클(상/중/하)" style="shape=partialRectangle;top=0;left=0;right=0;bottom=0;html=1;align=left;verticalAlign=top;fillColor=none;spacingLeft=34;spacingRight=4;whiteSpace=wrap;overflow=hidden;rotatable=0;points=[[0,0.5],[1,0.5]];portConstraint=eastwest;dropTarget=0;labelBackgroundColor=none;strokeColor=#788AA3;fontColor=#46495D;" parent="s8aTRHkVXZxyGGqHwzvx-2" vertex="1">
          <mxGeometry y="264" width="280" height="26" as="geometry" />
        </mxCell>
        <mxCell id="suNme6-eA1xpTHc4A4N6-38" value="" style="shape=partialRectangle;top=0;left=0;bottom=0;html=1;fillColor=none;align=left;verticalAlign=top;spacingLeft=4;spacingRight=4;whiteSpace=wrap;overflow=hidden;rotatable=0;points=[];portConstraint=eastwest;part=1;labelBackgroundColor=none;strokeColor=#788AA3;fontColor=#46495D;" parent="suNme6-eA1xpTHc4A4N6-37" vertex="1" connectable="0">
          <mxGeometry width="30" height="26" as="geometry" />
        </mxCell>
        <mxCell id="suNme6-eA1xpTHc4A4N6-35" value="피지(상/중/하)" style="shape=partialRectangle;top=0;left=0;right=0;bottom=0;html=1;align=left;verticalAlign=top;fillColor=none;spacingLeft=34;spacingRight=4;whiteSpace=wrap;overflow=hidden;rotatable=0;points=[[0,0.5],[1,0.5]];portConstraint=eastwest;dropTarget=0;labelBackgroundColor=none;strokeColor=#788AA3;fontColor=#46495D;" parent="s8aTRHkVXZxyGGqHwzvx-2" vertex="1">
          <mxGeometry y="290" width="280" height="26" as="geometry" />
        </mxCell>
        <mxCell id="suNme6-eA1xpTHc4A4N6-36" value="" style="shape=partialRectangle;top=0;left=0;bottom=0;html=1;fillColor=none;align=left;verticalAlign=top;spacingLeft=4;spacingRight=4;whiteSpace=wrap;overflow=hidden;rotatable=0;points=[];portConstraint=eastwest;part=1;labelBackgroundColor=none;strokeColor=#788AA3;fontColor=#46495D;" parent="suNme6-eA1xpTHc4A4N6-35" vertex="1" connectable="0">
          <mxGeometry width="30" height="26" as="geometry" />
        </mxCell>
        <mxCell id="suNme6-eA1xpTHc4A4N6-33" value="광채(상/중/하)" style="shape=partialRectangle;top=0;left=0;right=0;bottom=0;html=1;align=left;verticalAlign=top;fillColor=none;spacingLeft=34;spacingRight=4;whiteSpace=wrap;overflow=hidden;rotatable=0;points=[[0,0.5],[1,0.5]];portConstraint=eastwest;dropTarget=0;labelBackgroundColor=none;strokeColor=#788AA3;fontColor=#46495D;" parent="s8aTRHkVXZxyGGqHwzvx-2" vertex="1">
          <mxGeometry y="316" width="280" height="26" as="geometry" />
        </mxCell>
        <mxCell id="suNme6-eA1xpTHc4A4N6-34" value="" style="shape=partialRectangle;top=0;left=0;bottom=0;html=1;fillColor=none;align=left;verticalAlign=top;spacingLeft=4;spacingRight=4;whiteSpace=wrap;overflow=hidden;rotatable=0;points=[];portConstraint=eastwest;part=1;labelBackgroundColor=none;strokeColor=#788AA3;fontColor=#46495D;" parent="suNme6-eA1xpTHc4A4N6-33" vertex="1" connectable="0">
          <mxGeometry width="30" height="26" as="geometry" />
        </mxCell>
        <mxCell id="suNme6-eA1xpTHc4A4N6-31" value="색소침착(상/중/하)" style="shape=partialRectangle;top=0;left=0;right=0;bottom=0;html=1;align=left;verticalAlign=top;fillColor=none;spacingLeft=34;spacingRight=4;whiteSpace=wrap;overflow=hidden;rotatable=0;points=[[0,0.5],[1,0.5]];portConstraint=eastwest;dropTarget=0;labelBackgroundColor=none;strokeColor=#788AA3;fontColor=#46495D;" parent="s8aTRHkVXZxyGGqHwzvx-2" vertex="1">
          <mxGeometry y="342" width="280" height="26" as="geometry" />
        </mxCell>
        <mxCell id="suNme6-eA1xpTHc4A4N6-32" value="" style="shape=partialRectangle;top=0;left=0;bottom=0;html=1;fillColor=none;align=left;verticalAlign=top;spacingLeft=4;spacingRight=4;whiteSpace=wrap;overflow=hidden;rotatable=0;points=[];portConstraint=eastwest;part=1;labelBackgroundColor=none;strokeColor=#788AA3;fontColor=#46495D;" parent="suNme6-eA1xpTHc4A4N6-31" vertex="1" connectable="0">
          <mxGeometry width="30" height="26" as="geometry" />
        </mxCell>
        <mxCell id="suNme6-eA1xpTHc4A4N6-29" value="주름(상/중/하)" style="shape=partialRectangle;top=0;left=0;right=0;bottom=0;html=1;align=left;verticalAlign=top;fillColor=none;spacingLeft=34;spacingRight=4;whiteSpace=wrap;overflow=hidden;rotatable=0;points=[[0,0.5],[1,0.5]];portConstraint=eastwest;dropTarget=0;labelBackgroundColor=none;strokeColor=#788AA3;fontColor=#46495D;" parent="s8aTRHkVXZxyGGqHwzvx-2" vertex="1">
          <mxGeometry y="368" width="280" height="26" as="geometry" />
        </mxCell>
        <mxCell id="suNme6-eA1xpTHc4A4N6-30" value="" style="shape=partialRectangle;top=0;left=0;bottom=0;html=1;fillColor=none;align=left;verticalAlign=top;spacingLeft=4;spacingRight=4;whiteSpace=wrap;overflow=hidden;rotatable=0;points=[];portConstraint=eastwest;part=1;labelBackgroundColor=none;strokeColor=#788AA3;fontColor=#46495D;" parent="suNme6-eA1xpTHc4A4N6-29" vertex="1" connectable="0">
          <mxGeometry width="30" height="26" as="geometry" />
        </mxCell>
        <mxCell id="suNme6-eA1xpTHc4A4N6-27" value="홍조(상/중/하)" style="shape=partialRectangle;top=0;left=0;right=0;bottom=0;html=1;align=left;verticalAlign=top;fillColor=none;spacingLeft=34;spacingRight=4;whiteSpace=wrap;overflow=hidden;rotatable=0;points=[[0,0.5],[1,0.5]];portConstraint=eastwest;dropTarget=0;labelBackgroundColor=none;strokeColor=#788AA3;fontColor=#46495D;" parent="s8aTRHkVXZxyGGqHwzvx-2" vertex="1">
          <mxGeometry y="394" width="280" height="26" as="geometry" />
        </mxCell>
        <mxCell id="suNme6-eA1xpTHc4A4N6-28" value="" style="shape=partialRectangle;top=0;left=0;bottom=0;html=1;fillColor=none;align=left;verticalAlign=top;spacingLeft=4;spacingRight=4;whiteSpace=wrap;overflow=hidden;rotatable=0;points=[];portConstraint=eastwest;part=1;labelBackgroundColor=none;strokeColor=#788AA3;fontColor=#46495D;" parent="suNme6-eA1xpTHc4A4N6-27" vertex="1" connectable="0">
          <mxGeometry width="30" height="26" as="geometry" />
        </mxCell>
        <mxCell id="suNme6-eA1xpTHc4A4N6-25" value="탄력(상/중/하)" style="shape=partialRectangle;top=0;left=0;right=0;bottom=0;html=1;align=left;verticalAlign=top;fillColor=none;spacingLeft=34;spacingRight=4;whiteSpace=wrap;overflow=hidden;rotatable=0;points=[[0,0.5],[1,0.5]];portConstraint=eastwest;dropTarget=0;labelBackgroundColor=none;strokeColor=#788AA3;fontColor=#46495D;" parent="s8aTRHkVXZxyGGqHwzvx-2" vertex="1">
          <mxGeometry y="420" width="280" height="26" as="geometry" />
        </mxCell>
        <mxCell id="suNme6-eA1xpTHc4A4N6-26" value="" style="shape=partialRectangle;top=0;left=0;bottom=0;html=1;fillColor=none;align=left;verticalAlign=top;spacingLeft=4;spacingRight=4;whiteSpace=wrap;overflow=hidden;rotatable=0;points=[];portConstraint=eastwest;part=1;labelBackgroundColor=none;strokeColor=#788AA3;fontColor=#46495D;" parent="suNme6-eA1xpTHc4A4N6-25" vertex="1" connectable="0">
          <mxGeometry width="30" height="26" as="geometry" />
        </mxCell>
        <mxCell id="suNme6-eA1xpTHc4A4N6-23" value="피부결 (상/중/하)" style="shape=partialRectangle;top=0;left=0;right=0;bottom=0;html=1;align=left;verticalAlign=top;fillColor=none;spacingLeft=34;spacingRight=4;whiteSpace=wrap;overflow=hidden;rotatable=0;points=[[0,0.5],[1,0.5]];portConstraint=eastwest;dropTarget=0;labelBackgroundColor=none;strokeColor=#788AA3;fontColor=#46495D;" parent="s8aTRHkVXZxyGGqHwzvx-2" vertex="1">
          <mxGeometry y="446" width="280" height="26" as="geometry" />
        </mxCell>
        <mxCell id="suNme6-eA1xpTHc4A4N6-24" value="" style="shape=partialRectangle;top=0;left=0;bottom=0;html=1;fillColor=none;align=left;verticalAlign=top;spacingLeft=4;spacingRight=4;whiteSpace=wrap;overflow=hidden;rotatable=0;points=[];portConstraint=eastwest;part=1;labelBackgroundColor=none;strokeColor=#788AA3;fontColor=#46495D;" parent="suNme6-eA1xpTHc4A4N6-23" vertex="1" connectable="0">
          <mxGeometry width="30" height="26" as="geometry" />
        </mxCell>
        <mxCell id="s8aTRHkVXZxyGGqHwzvx-11" value="" style="shape=partialRectangle;top=0;left=0;right=0;bottom=0;html=1;align=left;verticalAlign=top;fillColor=none;spacingLeft=34;spacingRight=4;whiteSpace=wrap;overflow=hidden;rotatable=0;points=[[0,0.5],[1,0.5]];portConstraint=eastwest;dropTarget=0;labelBackgroundColor=none;strokeColor=#788AA3;fontColor=#46495D;" parent="s8aTRHkVXZxyGGqHwzvx-2" vertex="1">
          <mxGeometry y="472" width="280" height="10" as="geometry" />
        </mxCell>
        <mxCell id="s8aTRHkVXZxyGGqHwzvx-12" value="" style="shape=partialRectangle;top=0;left=0;bottom=0;html=1;fillColor=none;align=left;verticalAlign=top;spacingLeft=4;spacingRight=4;whiteSpace=wrap;overflow=hidden;rotatable=0;points=[];portConstraint=eastwest;part=1;labelBackgroundColor=none;strokeColor=#788AA3;fontColor=#46495D;" parent="s8aTRHkVXZxyGGqHwzvx-11" vertex="1" connectable="0">
          <mxGeometry width="30" height="10" as="geometry" />
        </mxCell>
        <mxCell id="s8aTRHkVXZxyGGqHwzvx-37" value="병원 시술 추천 대상자" style="swimlane;html=1;fontStyle=0;childLayout=stackLayout;horizontal=1;startSize=26;fillColor=#B2C9AB;horizontalStack=0;resizeParent=1;resizeLast=0;collapsible=1;marginBottom=0;swimlaneFillColor=#ffffff;align=center;rounded=0;shadow=0;comic=0;labelBackgroundColor=none;strokeWidth=1;fontFamily=Verdana;fontSize=14;strokeColor=#788AA3;fontColor=#46495D;" parent="1" vertex="1">
          <mxGeometry x="460" y="560" width="250" height="200" as="geometry" />
        </mxCell>
        <mxCell id="s8aTRHkVXZxyGGqHwzvx-38" value="병원시술ID" style="shape=partialRectangle;top=0;left=0;right=0;bottom=1;html=1;align=left;verticalAlign=middle;fillColor=none;spacingLeft=34;spacingRight=4;whiteSpace=wrap;overflow=hidden;rotatable=0;points=[[0,0.5],[1,0.5]];portConstraint=eastwest;dropTarget=0;fontStyle=5;labelBackgroundColor=none;strokeColor=#788AA3;fontColor=#46495D;" parent="s8aTRHkVXZxyGGqHwzvx-37" vertex="1">
          <mxGeometry y="26" width="250" height="30" as="geometry" />
        </mxCell>
        <mxCell id="s8aTRHkVXZxyGGqHwzvx-39" value="PK, FK" style="shape=partialRectangle;top=0;left=0;bottom=0;html=1;fillColor=none;align=left;verticalAlign=middle;spacingLeft=4;spacingRight=4;whiteSpace=wrap;overflow=hidden;rotatable=0;points=[];portConstraint=eastwest;part=1;labelBackgroundColor=none;strokeColor=#788AA3;fontColor=#46495D;" parent="s8aTRHkVXZxyGGqHwzvx-38" vertex="1" connectable="0">
          <mxGeometry width="31.5" height="30" as="geometry" />
        </mxCell>
        <mxCell id="s8aTRHkVXZxyGGqHwzvx-40" value="성별&amp;nbsp;- 다중옵션" style="shape=partialRectangle;top=0;left=0;right=0;bottom=0;html=1;align=left;verticalAlign=top;fillColor=none;spacingLeft=34;spacingRight=4;whiteSpace=wrap;overflow=hidden;rotatable=0;points=[[0,0.5],[1,0.5]];portConstraint=eastwest;dropTarget=0;labelBackgroundColor=none;strokeColor=#788AA3;fontColor=#46495D;" parent="s8aTRHkVXZxyGGqHwzvx-37" vertex="1">
          <mxGeometry y="56" width="250" height="26" as="geometry" />
        </mxCell>
        <mxCell id="s8aTRHkVXZxyGGqHwzvx-41" value="" style="shape=partialRectangle;top=0;left=0;bottom=0;html=1;fillColor=none;align=left;verticalAlign=top;spacingLeft=4;spacingRight=4;whiteSpace=wrap;overflow=hidden;rotatable=0;points=[];portConstraint=eastwest;part=1;labelBackgroundColor=none;strokeColor=#788AA3;fontColor=#46495D;" parent="s8aTRHkVXZxyGGqHwzvx-40" vertex="1" connectable="0">
          <mxGeometry width="30" height="26" as="geometry" />
        </mxCell>
        <mxCell id="s8aTRHkVXZxyGGqHwzvx-42" value="연령 그룹&amp;nbsp;- 다중옵션" style="shape=partialRectangle;top=0;left=0;right=0;bottom=0;html=1;align=left;verticalAlign=top;fillColor=none;spacingLeft=34;spacingRight=4;whiteSpace=wrap;overflow=hidden;rotatable=0;points=[[0,0.5],[1,0.5]];portConstraint=eastwest;dropTarget=0;labelBackgroundColor=none;strokeColor=#788AA3;fontColor=#46495D;" parent="s8aTRHkVXZxyGGqHwzvx-37" vertex="1">
          <mxGeometry y="82" width="250" height="26" as="geometry" />
        </mxCell>
        <mxCell id="s8aTRHkVXZxyGGqHwzvx-43" value="" style="shape=partialRectangle;top=0;left=0;bottom=0;html=1;fillColor=none;align=left;verticalAlign=top;spacingLeft=4;spacingRight=4;whiteSpace=wrap;overflow=hidden;rotatable=0;points=[];portConstraint=eastwest;part=1;labelBackgroundColor=none;strokeColor=#788AA3;fontColor=#46495D;" parent="s8aTRHkVXZxyGGqHwzvx-42" vertex="1" connectable="0">
          <mxGeometry width="30" height="26" as="geometry" />
        </mxCell>
        <mxCell id="s8aTRHkVXZxyGGqHwzvx-44" value="피부타입 옵션1&amp;nbsp;- 다중옵션" style="shape=partialRectangle;top=0;left=0;right=0;bottom=0;html=1;align=left;verticalAlign=top;fillColor=none;spacingLeft=34;spacingRight=4;whiteSpace=wrap;overflow=hidden;rotatable=0;points=[[0,0.5],[1,0.5]];portConstraint=eastwest;dropTarget=0;labelBackgroundColor=none;strokeColor=#788AA3;fontColor=#46495D;" parent="s8aTRHkVXZxyGGqHwzvx-37" vertex="1">
          <mxGeometry y="108" width="250" height="26" as="geometry" />
        </mxCell>
        <mxCell id="s8aTRHkVXZxyGGqHwzvx-45" value="" style="shape=partialRectangle;top=0;left=0;bottom=0;html=1;fillColor=none;align=left;verticalAlign=top;spacingLeft=4;spacingRight=4;whiteSpace=wrap;overflow=hidden;rotatable=0;points=[];portConstraint=eastwest;part=1;labelBackgroundColor=none;strokeColor=#788AA3;fontColor=#46495D;" parent="s8aTRHkVXZxyGGqHwzvx-44" vertex="1" connectable="0">
          <mxGeometry width="30" height="26" as="geometry" />
        </mxCell>
        <mxCell id="s8aTRHkVXZxyGGqHwzvx-46" value="피부타입 옵션2&amp;nbsp;- 다중옵션" style="shape=partialRectangle;top=0;left=0;right=0;bottom=0;html=1;align=left;verticalAlign=top;fillColor=none;spacingLeft=34;spacingRight=4;whiteSpace=wrap;overflow=hidden;rotatable=0;points=[[0,0.5],[1,0.5]];portConstraint=eastwest;dropTarget=0;labelBackgroundColor=none;strokeColor=#788AA3;fontColor=#46495D;" parent="s8aTRHkVXZxyGGqHwzvx-37" vertex="1">
          <mxGeometry y="134" width="250" height="26" as="geometry" />
        </mxCell>
        <mxCell id="s8aTRHkVXZxyGGqHwzvx-47" value="" style="shape=partialRectangle;top=0;left=0;bottom=0;html=1;fillColor=none;align=left;verticalAlign=top;spacingLeft=4;spacingRight=4;whiteSpace=wrap;overflow=hidden;rotatable=0;points=[];portConstraint=eastwest;part=1;labelBackgroundColor=none;strokeColor=#788AA3;fontColor=#46495D;" parent="s8aTRHkVXZxyGGqHwzvx-46" vertex="1" connectable="0">
          <mxGeometry width="30" height="26" as="geometry" />
        </mxCell>
        <mxCell id="s8aTRHkVXZxyGGqHwzvx-48" value="피부타입 옵션3&amp;nbsp;- 다중옵션" style="shape=partialRectangle;top=0;left=0;right=0;bottom=0;html=1;align=left;verticalAlign=top;fillColor=none;spacingLeft=34;spacingRight=4;whiteSpace=wrap;overflow=hidden;rotatable=0;points=[[0,0.5],[1,0.5]];portConstraint=eastwest;dropTarget=0;labelBackgroundColor=none;strokeColor=#788AA3;fontColor=#46495D;" parent="s8aTRHkVXZxyGGqHwzvx-37" vertex="1">
          <mxGeometry y="160" width="250" height="26" as="geometry" />
        </mxCell>
        <mxCell id="s8aTRHkVXZxyGGqHwzvx-49" value="" style="shape=partialRectangle;top=0;left=0;bottom=0;html=1;fillColor=none;align=left;verticalAlign=top;spacingLeft=4;spacingRight=4;whiteSpace=wrap;overflow=hidden;rotatable=0;points=[];portConstraint=eastwest;part=1;labelBackgroundColor=none;strokeColor=#788AA3;fontColor=#46495D;" parent="s8aTRHkVXZxyGGqHwzvx-48" vertex="1" connectable="0">
          <mxGeometry width="30" height="26" as="geometry" />
        </mxCell>
        <mxCell id="s8aTRHkVXZxyGGqHwzvx-54" value="" style="shape=partialRectangle;top=0;left=0;right=0;bottom=0;html=1;align=left;verticalAlign=top;fillColor=none;spacingLeft=34;spacingRight=4;whiteSpace=wrap;overflow=hidden;rotatable=0;points=[[0,0.5],[1,0.5]];portConstraint=eastwest;dropTarget=0;labelBackgroundColor=none;strokeColor=#788AA3;fontColor=#46495D;" parent="s8aTRHkVXZxyGGqHwzvx-37" vertex="1">
          <mxGeometry y="186" width="250" height="10" as="geometry" />
        </mxCell>
        <mxCell id="s8aTRHkVXZxyGGqHwzvx-55" value="" style="shape=partialRectangle;top=0;left=0;bottom=0;html=1;fillColor=none;align=left;verticalAlign=top;spacingLeft=4;spacingRight=4;whiteSpace=wrap;overflow=hidden;rotatable=0;points=[];portConstraint=eastwest;part=1;labelBackgroundColor=none;strokeColor=#788AA3;fontColor=#46495D;" parent="s8aTRHkVXZxyGGqHwzvx-54" vertex="1" connectable="0">
          <mxGeometry width="30" height="10" as="geometry" />
        </mxCell>
        <mxCell id="s8aTRHkVXZxyGGqHwzvx-160" value="병원시술 테이블" style="swimlane;html=1;fontStyle=0;childLayout=stackLayout;horizontal=1;startSize=26;fillColor=#B2C9AB;horizontalStack=0;resizeParent=1;resizeLast=0;collapsible=1;marginBottom=0;swimlaneFillColor=#ffffff;align=center;rounded=0;shadow=0;comic=0;labelBackgroundColor=none;strokeWidth=1;fontFamily=Verdana;fontSize=14;strokeColor=#788AA3;fontColor=#46495D;" parent="1" vertex="1">
          <mxGeometry x="160" y="20" width="160" height="352" as="geometry" />
        </mxCell>
        <mxCell id="s8aTRHkVXZxyGGqHwzvx-161" value="병원시술ID" style="shape=partialRectangle;top=0;left=0;right=0;bottom=1;html=1;align=left;verticalAlign=middle;fillColor=none;spacingLeft=34;spacingRight=4;whiteSpace=wrap;overflow=hidden;rotatable=0;points=[[0,0.5],[1,0.5]];portConstraint=eastwest;dropTarget=0;fontStyle=5;labelBackgroundColor=none;strokeColor=#788AA3;fontColor=#46495D;" parent="s8aTRHkVXZxyGGqHwzvx-160" vertex="1">
          <mxGeometry y="26" width="160" height="30" as="geometry" />
        </mxCell>
        <mxCell id="s8aTRHkVXZxyGGqHwzvx-162" value="PK" style="shape=partialRectangle;top=0;left=0;bottom=0;html=1;fillColor=none;align=left;verticalAlign=middle;spacingLeft=4;spacingRight=4;whiteSpace=wrap;overflow=hidden;rotatable=0;points=[];portConstraint=eastwest;part=1;labelBackgroundColor=none;strokeColor=#788AA3;fontColor=#46495D;" parent="s8aTRHkVXZxyGGqHwzvx-161" vertex="1" connectable="0">
          <mxGeometry width="30" height="30" as="geometry" />
        </mxCell>
        <mxCell id="s8aTRHkVXZxyGGqHwzvx-163" value="병원ID" style="shape=partialRectangle;top=0;left=0;right=0;bottom=0;html=1;align=left;verticalAlign=top;fillColor=none;spacingLeft=34;spacingRight=4;whiteSpace=wrap;overflow=hidden;rotatable=0;points=[[0,0.5],[1,0.5]];portConstraint=eastwest;dropTarget=0;labelBackgroundColor=none;strokeColor=#788AA3;fontColor=#46495D;" parent="s8aTRHkVXZxyGGqHwzvx-160" vertex="1">
          <mxGeometry y="56" width="160" height="26" as="geometry" />
        </mxCell>
        <mxCell id="s8aTRHkVXZxyGGqHwzvx-164" value="FK" style="shape=partialRectangle;top=0;left=0;bottom=0;html=1;fillColor=none;align=left;verticalAlign=top;spacingLeft=4;spacingRight=4;whiteSpace=wrap;overflow=hidden;rotatable=0;points=[];portConstraint=eastwest;part=1;labelBackgroundColor=none;strokeColor=#788AA3;fontColor=#46495D;" parent="s8aTRHkVXZxyGGqHwzvx-163" vertex="1" connectable="0">
          <mxGeometry width="30" height="26" as="geometry" />
        </mxCell>
        <mxCell id="Vb2O8qSX6tOqTRUZdygF-13" value="카테고리ID" style="shape=partialRectangle;top=0;left=0;right=0;bottom=0;html=1;align=left;verticalAlign=top;fillColor=none;spacingLeft=34;spacingRight=4;whiteSpace=wrap;overflow=hidden;rotatable=0;points=[[0,0.5],[1,0.5]];portConstraint=eastwest;dropTarget=0;labelBackgroundColor=none;strokeColor=#788AA3;fontColor=#46495D;" vertex="1" parent="s8aTRHkVXZxyGGqHwzvx-160">
          <mxGeometry y="82" width="160" height="26" as="geometry" />
        </mxCell>
        <mxCell id="Vb2O8qSX6tOqTRUZdygF-14" value="FK" style="shape=partialRectangle;top=0;left=0;bottom=0;html=1;fillColor=none;align=left;verticalAlign=top;spacingLeft=4;spacingRight=4;whiteSpace=wrap;overflow=hidden;rotatable=0;points=[];portConstraint=eastwest;part=1;labelBackgroundColor=none;strokeColor=#788AA3;fontColor=#46495D;" vertex="1" connectable="0" parent="Vb2O8qSX6tOqTRUZdygF-13">
          <mxGeometry width="30" height="26" as="geometry" />
        </mxCell>
        <mxCell id="s8aTRHkVXZxyGGqHwzvx-167" value="시술ID" style="shape=partialRectangle;top=0;left=0;right=0;bottom=0;html=1;align=left;verticalAlign=top;fillColor=none;spacingLeft=34;spacingRight=4;whiteSpace=wrap;overflow=hidden;rotatable=0;points=[[0,0.5],[1,0.5]];portConstraint=eastwest;dropTarget=0;labelBackgroundColor=none;strokeColor=#788AA3;fontColor=#46495D;" parent="s8aTRHkVXZxyGGqHwzvx-160" vertex="1">
          <mxGeometry y="108" width="160" height="26" as="geometry" />
        </mxCell>
        <mxCell id="s8aTRHkVXZxyGGqHwzvx-168" value="FK" style="shape=partialRectangle;top=0;left=0;bottom=0;html=1;fillColor=none;align=left;verticalAlign=top;spacingLeft=4;spacingRight=4;whiteSpace=wrap;overflow=hidden;rotatable=0;points=[];portConstraint=eastwest;part=1;labelBackgroundColor=none;strokeColor=#788AA3;fontColor=#46495D;" parent="s8aTRHkVXZxyGGqHwzvx-167" vertex="1" connectable="0">
          <mxGeometry width="30" height="26" as="geometry" />
        </mxCell>
        <mxCell id="Vb2O8qSX6tOqTRUZdygF-1" value="시술 이미지" style="shape=partialRectangle;top=0;left=0;right=0;bottom=0;html=1;align=left;verticalAlign=top;fillColor=none;spacingLeft=34;spacingRight=4;whiteSpace=wrap;overflow=hidden;rotatable=0;points=[[0,0.5],[1,0.5]];portConstraint=eastwest;dropTarget=0;labelBackgroundColor=none;strokeColor=#788AA3;fontColor=#46495D;" vertex="1" parent="s8aTRHkVXZxyGGqHwzvx-160">
          <mxGeometry y="134" width="160" height="26" as="geometry" />
        </mxCell>
        <mxCell id="Vb2O8qSX6tOqTRUZdygF-2" value="" style="shape=partialRectangle;top=0;left=0;bottom=0;html=1;fillColor=none;align=left;verticalAlign=top;spacingLeft=4;spacingRight=4;whiteSpace=wrap;overflow=hidden;rotatable=0;points=[];portConstraint=eastwest;part=1;labelBackgroundColor=none;strokeColor=#788AA3;fontColor=#46495D;" vertex="1" connectable="0" parent="Vb2O8qSX6tOqTRUZdygF-1">
          <mxGeometry width="30" height="26" as="geometry" />
        </mxCell>
        <mxCell id="s8aTRHkVXZxyGGqHwzvx-169" value="시술 닉네임" style="shape=partialRectangle;top=0;left=0;right=0;bottom=0;html=1;align=left;verticalAlign=top;fillColor=none;spacingLeft=34;spacingRight=4;whiteSpace=wrap;overflow=hidden;rotatable=0;points=[[0,0.5],[1,0.5]];portConstraint=eastwest;dropTarget=0;labelBackgroundColor=none;strokeColor=#788AA3;fontColor=#46495D;" parent="s8aTRHkVXZxyGGqHwzvx-160" vertex="1">
          <mxGeometry y="160" width="160" height="26" as="geometry" />
        </mxCell>
        <mxCell id="s8aTRHkVXZxyGGqHwzvx-170" value="" style="shape=partialRectangle;top=0;left=0;bottom=0;html=1;fillColor=none;align=left;verticalAlign=top;spacingLeft=4;spacingRight=4;whiteSpace=wrap;overflow=hidden;rotatable=0;points=[];portConstraint=eastwest;part=1;labelBackgroundColor=none;strokeColor=#788AA3;fontColor=#46495D;" parent="s8aTRHkVXZxyGGqHwzvx-169" vertex="1" connectable="0">
          <mxGeometry width="30" height="26" as="geometry" />
        </mxCell>
        <mxCell id="N3Z6m8R5QKqXO_m7Msgg-6" value="성분 설명" style="shape=partialRectangle;top=0;left=0;right=0;bottom=0;html=1;align=left;verticalAlign=top;fillColor=none;spacingLeft=34;spacingRight=4;whiteSpace=wrap;overflow=hidden;rotatable=0;points=[[0,0.5],[1,0.5]];portConstraint=eastwest;dropTarget=0;labelBackgroundColor=none;strokeColor=#788AA3;fontColor=#46495D;" parent="s8aTRHkVXZxyGGqHwzvx-160" vertex="1">
          <mxGeometry y="186" width="160" height="26" as="geometry" />
        </mxCell>
        <mxCell id="N3Z6m8R5QKqXO_m7Msgg-7" value="" style="shape=partialRectangle;top=0;left=0;bottom=0;html=1;fillColor=none;align=left;verticalAlign=top;spacingLeft=4;spacingRight=4;whiteSpace=wrap;overflow=hidden;rotatable=0;points=[];portConstraint=eastwest;part=1;labelBackgroundColor=none;strokeColor=#788AA3;fontColor=#46495D;" parent="N3Z6m8R5QKqXO_m7Msgg-6" vertex="1" connectable="0">
          <mxGeometry width="30" height="26" as="geometry" />
        </mxCell>
        <mxCell id="N3Z6m8R5QKqXO_m7Msgg-4" value="소요시간(단위:분)" style="shape=partialRectangle;top=0;left=0;right=0;bottom=0;html=1;align=left;verticalAlign=top;fillColor=none;spacingLeft=34;spacingRight=4;whiteSpace=wrap;overflow=hidden;rotatable=0;points=[[0,0.5],[1,0.5]];portConstraint=eastwest;dropTarget=0;labelBackgroundColor=none;strokeColor=#788AA3;fontColor=#46495D;" parent="s8aTRHkVXZxyGGqHwzvx-160" vertex="1">
          <mxGeometry y="212" width="160" height="26" as="geometry" />
        </mxCell>
        <mxCell id="N3Z6m8R5QKqXO_m7Msgg-5" value="" style="shape=partialRectangle;top=0;left=0;bottom=0;html=1;fillColor=none;align=left;verticalAlign=top;spacingLeft=4;spacingRight=4;whiteSpace=wrap;overflow=hidden;rotatable=0;points=[];portConstraint=eastwest;part=1;labelBackgroundColor=none;strokeColor=#788AA3;fontColor=#46495D;" parent="N3Z6m8R5QKqXO_m7Msgg-4" vertex="1" connectable="0">
          <mxGeometry width="30" height="26" as="geometry" />
        </mxCell>
        <mxCell id="s8aTRHkVXZxyGGqHwzvx-171" value="정가" style="shape=partialRectangle;top=0;left=0;right=0;bottom=0;html=1;align=left;verticalAlign=top;fillColor=none;spacingLeft=34;spacingRight=4;whiteSpace=wrap;overflow=hidden;rotatable=0;points=[[0,0.5],[1,0.5]];portConstraint=eastwest;dropTarget=0;labelBackgroundColor=none;strokeColor=#788AA3;fontColor=#46495D;" parent="s8aTRHkVXZxyGGqHwzvx-160" vertex="1">
          <mxGeometry y="238" width="160" height="26" as="geometry" />
        </mxCell>
        <mxCell id="s8aTRHkVXZxyGGqHwzvx-172" value="" style="shape=partialRectangle;top=0;left=0;bottom=0;html=1;fillColor=none;align=left;verticalAlign=top;spacingLeft=4;spacingRight=4;whiteSpace=wrap;overflow=hidden;rotatable=0;points=[];portConstraint=eastwest;part=1;labelBackgroundColor=none;strokeColor=#788AA3;fontColor=#46495D;" parent="s8aTRHkVXZxyGGqHwzvx-171" vertex="1" connectable="0">
          <mxGeometry width="30" height="26" as="geometry" />
        </mxCell>
        <mxCell id="suNme6-eA1xpTHc4A4N6-41" value="할인가" style="shape=partialRectangle;top=0;left=0;right=0;bottom=0;html=1;align=left;verticalAlign=top;fillColor=none;spacingLeft=34;spacingRight=4;whiteSpace=wrap;overflow=hidden;rotatable=0;points=[[0,0.5],[1,0.5]];portConstraint=eastwest;dropTarget=0;labelBackgroundColor=none;strokeColor=#788AA3;fontColor=#46495D;" parent="s8aTRHkVXZxyGGqHwzvx-160" vertex="1">
          <mxGeometry y="264" width="160" height="26" as="geometry" />
        </mxCell>
        <mxCell id="suNme6-eA1xpTHc4A4N6-42" value="" style="shape=partialRectangle;top=0;left=0;bottom=0;html=1;fillColor=none;align=left;verticalAlign=top;spacingLeft=4;spacingRight=4;whiteSpace=wrap;overflow=hidden;rotatable=0;points=[];portConstraint=eastwest;part=1;labelBackgroundColor=none;strokeColor=#788AA3;fontColor=#46495D;" parent="suNme6-eA1xpTHc4A4N6-41" vertex="1" connectable="0">
          <mxGeometry width="30" height="26" as="geometry" />
        </mxCell>
        <mxCell id="s8aTRHkVXZxyGGqHwzvx-217" value="시술 설명" style="shape=partialRectangle;top=0;left=0;right=0;bottom=0;html=1;align=left;verticalAlign=top;fillColor=none;spacingLeft=34;spacingRight=4;whiteSpace=wrap;overflow=hidden;rotatable=0;points=[[0,0.5],[1,0.5]];portConstraint=eastwest;dropTarget=0;labelBackgroundColor=none;strokeColor=#788AA3;fontColor=#46495D;" parent="s8aTRHkVXZxyGGqHwzvx-160" vertex="1">
          <mxGeometry y="290" width="160" height="26" as="geometry" />
        </mxCell>
        <mxCell id="s8aTRHkVXZxyGGqHwzvx-218" value="" style="shape=partialRectangle;top=0;left=0;bottom=0;html=1;fillColor=none;align=left;verticalAlign=top;spacingLeft=4;spacingRight=4;whiteSpace=wrap;overflow=hidden;rotatable=0;points=[];portConstraint=eastwest;part=1;labelBackgroundColor=none;strokeColor=#788AA3;fontColor=#46495D;" parent="s8aTRHkVXZxyGGqHwzvx-217" vertex="1" connectable="0">
          <mxGeometry width="30" height="26" as="geometry" />
        </mxCell>
        <mxCell id="s8aTRHkVXZxyGGqHwzvx-219" value="해시태그" style="shape=partialRectangle;top=0;left=0;right=0;bottom=0;html=1;align=left;verticalAlign=top;fillColor=none;spacingLeft=34;spacingRight=4;whiteSpace=wrap;overflow=hidden;rotatable=0;points=[[0,0.5],[1,0.5]];portConstraint=eastwest;dropTarget=0;labelBackgroundColor=none;strokeColor=#788AA3;fontColor=#46495D;" parent="s8aTRHkVXZxyGGqHwzvx-160" vertex="1">
          <mxGeometry y="316" width="160" height="26" as="geometry" />
        </mxCell>
        <mxCell id="s8aTRHkVXZxyGGqHwzvx-220" value="" style="shape=partialRectangle;top=0;left=0;bottom=0;html=1;fillColor=none;align=left;verticalAlign=top;spacingLeft=4;spacingRight=4;whiteSpace=wrap;overflow=hidden;rotatable=0;points=[];portConstraint=eastwest;part=1;labelBackgroundColor=none;strokeColor=#788AA3;fontColor=#46495D;" parent="s8aTRHkVXZxyGGqHwzvx-219" vertex="1" connectable="0">
          <mxGeometry width="30" height="26" as="geometry" />
        </mxCell>
        <mxCell id="s8aTRHkVXZxyGGqHwzvx-173" value="" style="shape=partialRectangle;top=0;left=0;right=0;bottom=0;html=1;align=left;verticalAlign=top;fillColor=none;spacingLeft=34;spacingRight=4;whiteSpace=wrap;overflow=hidden;rotatable=0;points=[[0,0.5],[1,0.5]];portConstraint=eastwest;dropTarget=0;labelBackgroundColor=none;strokeColor=#788AA3;fontColor=#46495D;" parent="s8aTRHkVXZxyGGqHwzvx-160" vertex="1">
          <mxGeometry y="342" width="160" height="10" as="geometry" />
        </mxCell>
        <mxCell id="s8aTRHkVXZxyGGqHwzvx-174" value="" style="shape=partialRectangle;top=0;left=0;bottom=0;html=1;fillColor=none;align=left;verticalAlign=top;spacingLeft=4;spacingRight=4;whiteSpace=wrap;overflow=hidden;rotatable=0;points=[];portConstraint=eastwest;part=1;labelBackgroundColor=none;strokeColor=#788AA3;fontColor=#46495D;" parent="s8aTRHkVXZxyGGqHwzvx-173" vertex="1" connectable="0">
          <mxGeometry width="30" height="10" as="geometry" />
        </mxCell>
        <mxCell id="s8aTRHkVXZxyGGqHwzvx-212" value="" style="edgeStyle=entityRelationEdgeStyle;fontSize=12;html=1;endArrow=ERmandOne;startArrow=ERmandOne;rounded=0;strokeColor=#788AA3;fontColor=#46495D;fillColor=#B2C9AB;" parent="1" source="s8aTRHkVXZxyGGqHwzvx-161" target="s8aTRHkVXZxyGGqHwzvx-3" edge="1">
          <mxGeometry width="100" height="100" relative="1" as="geometry">
            <mxPoint x="280" y="260" as="sourcePoint" />
            <mxPoint x="380" y="160" as="targetPoint" />
          </mxGeometry>
        </mxCell>
        <mxCell id="s8aTRHkVXZxyGGqHwzvx-213" value="" style="edgeStyle=entityRelationEdgeStyle;fontSize=12;html=1;endArrow=ERmandOne;startArrow=ERmandOne;rounded=0;strokeColor=#788AA3;fontColor=#46495D;fillColor=#B2C9AB;" parent="1" source="s8aTRHkVXZxyGGqHwzvx-161" target="s8aTRHkVXZxyGGqHwzvx-38" edge="1">
          <mxGeometry width="100" height="100" relative="1" as="geometry">
            <mxPoint x="330" y="71" as="sourcePoint" />
            <mxPoint x="470" y="69" as="targetPoint" />
          </mxGeometry>
        </mxCell>
        <mxCell id="s8aTRHkVXZxyGGqHwzvx-221" value="시술 해시태그" style="swimlane;html=1;fontStyle=0;childLayout=stackLayout;horizontal=1;startSize=26;fillColor=#B2C9AB;horizontalStack=0;resizeParent=1;resizeLast=0;collapsible=1;marginBottom=0;swimlaneFillColor=#ffffff;align=center;rounded=0;shadow=0;comic=0;labelBackgroundColor=none;strokeWidth=1;fontFamily=Verdana;fontSize=14;strokeColor=#788AA3;fontColor=#46495D;" parent="1" vertex="1">
          <mxGeometry x="150" y="420" width="160" height="120" as="geometry" />
        </mxCell>
        <mxCell id="s8aTRHkVXZxyGGqHwzvx-222" value="seq" style="shape=partialRectangle;top=0;left=0;right=0;bottom=1;html=1;align=left;verticalAlign=middle;fillColor=none;spacingLeft=34;spacingRight=4;whiteSpace=wrap;overflow=hidden;rotatable=0;points=[[0,0.5],[1,0.5]];portConstraint=eastwest;dropTarget=0;fontStyle=5;labelBackgroundColor=none;strokeColor=#788AA3;fontColor=#46495D;" parent="s8aTRHkVXZxyGGqHwzvx-221" vertex="1">
          <mxGeometry y="26" width="160" height="30" as="geometry" />
        </mxCell>
        <mxCell id="s8aTRHkVXZxyGGqHwzvx-223" value="PK" style="shape=partialRectangle;top=0;left=0;bottom=0;html=1;fillColor=none;align=left;verticalAlign=middle;spacingLeft=4;spacingRight=4;whiteSpace=wrap;overflow=hidden;rotatable=0;points=[];portConstraint=eastwest;part=1;labelBackgroundColor=none;strokeColor=#788AA3;fontColor=#46495D;" parent="s8aTRHkVXZxyGGqHwzvx-222" vertex="1" connectable="0">
          <mxGeometry width="30" height="30" as="geometry" />
        </mxCell>
        <mxCell id="s8aTRHkVXZxyGGqHwzvx-224" value="병원시술ID" style="shape=partialRectangle;top=0;left=0;right=0;bottom=0;html=1;align=left;verticalAlign=top;fillColor=none;spacingLeft=34;spacingRight=4;whiteSpace=wrap;overflow=hidden;rotatable=0;points=[[0,0.5],[1,0.5]];portConstraint=eastwest;dropTarget=0;labelBackgroundColor=none;strokeColor=#788AA3;fontColor=#46495D;" parent="s8aTRHkVXZxyGGqHwzvx-221" vertex="1">
          <mxGeometry y="56" width="160" height="26" as="geometry" />
        </mxCell>
        <mxCell id="s8aTRHkVXZxyGGqHwzvx-225" value="FK" style="shape=partialRectangle;top=0;left=0;bottom=0;html=1;fillColor=none;align=left;verticalAlign=top;spacingLeft=4;spacingRight=4;whiteSpace=wrap;overflow=hidden;rotatable=0;points=[];portConstraint=eastwest;part=1;labelBackgroundColor=none;strokeColor=#788AA3;fontColor=#46495D;" parent="s8aTRHkVXZxyGGqHwzvx-224" vertex="1" connectable="0">
          <mxGeometry width="30" height="26" as="geometry" />
        </mxCell>
        <mxCell id="s8aTRHkVXZxyGGqHwzvx-226" value="태그" style="shape=partialRectangle;top=0;left=0;right=0;bottom=0;html=1;align=left;verticalAlign=top;fillColor=none;spacingLeft=34;spacingRight=4;whiteSpace=wrap;overflow=hidden;rotatable=0;points=[[0,0.5],[1,0.5]];portConstraint=eastwest;dropTarget=0;labelBackgroundColor=none;strokeColor=#788AA3;fontColor=#46495D;" parent="s8aTRHkVXZxyGGqHwzvx-221" vertex="1">
          <mxGeometry y="82" width="160" height="26" as="geometry" />
        </mxCell>
        <mxCell id="s8aTRHkVXZxyGGqHwzvx-227" value="" style="shape=partialRectangle;top=0;left=0;bottom=0;html=1;fillColor=none;align=left;verticalAlign=top;spacingLeft=4;spacingRight=4;whiteSpace=wrap;overflow=hidden;rotatable=0;points=[];portConstraint=eastwest;part=1;labelBackgroundColor=none;strokeColor=#788AA3;fontColor=#46495D;" parent="s8aTRHkVXZxyGGqHwzvx-226" vertex="1" connectable="0">
          <mxGeometry width="30" height="26" as="geometry" />
        </mxCell>
        <mxCell id="s8aTRHkVXZxyGGqHwzvx-236" value="" style="edgeStyle=entityRelationEdgeStyle;fontSize=12;html=1;endArrow=ERzeroToMany;startArrow=ERzeroToOne;rounded=0;strokeColor=#788AA3;fontColor=#46495D;fillColor=#B2C9AB;" parent="1" source="s8aTRHkVXZxyGGqHwzvx-219" target="s8aTRHkVXZxyGGqHwzvx-224" edge="1">
          <mxGeometry width="100" height="100" relative="1" as="geometry">
            <mxPoint x="280" y="380" as="sourcePoint" />
            <mxPoint x="380" y="280" as="targetPoint" />
          </mxGeometry>
        </mxCell>
        <mxCell id="s8aTRHkVXZxyGGqHwzvx-302" value="부모코드" style="swimlane;html=1;fontStyle=0;childLayout=stackLayout;horizontal=1;startSize=26;fillColor=#B2C9AB;horizontalStack=0;resizeParent=1;resizeLast=0;collapsible=1;marginBottom=0;swimlaneFillColor=#ffffff;align=center;rounded=0;shadow=0;comic=0;labelBackgroundColor=none;strokeWidth=1;fontFamily=Verdana;fontSize=14;strokeColor=#788AA3;fontColor=#46495D;" parent="1" vertex="1">
          <mxGeometry x="-440" y="50" width="160" height="144" as="geometry" />
        </mxCell>
        <mxCell id="s8aTRHkVXZxyGGqHwzvx-303" value="부모 코드" style="shape=partialRectangle;top=0;left=0;right=0;bottom=1;html=1;align=left;verticalAlign=middle;fillColor=none;spacingLeft=34;spacingRight=4;whiteSpace=wrap;overflow=hidden;rotatable=0;points=[[0,0.5],[1,0.5]];portConstraint=eastwest;dropTarget=0;fontStyle=5;labelBackgroundColor=none;strokeColor=#788AA3;fontColor=#46495D;" parent="s8aTRHkVXZxyGGqHwzvx-302" vertex="1">
          <mxGeometry y="26" width="160" height="30" as="geometry" />
        </mxCell>
        <mxCell id="s8aTRHkVXZxyGGqHwzvx-304" value="PK" style="shape=partialRectangle;top=0;left=0;bottom=0;html=1;fillColor=none;align=left;verticalAlign=middle;spacingLeft=4;spacingRight=4;whiteSpace=wrap;overflow=hidden;rotatable=0;points=[];portConstraint=eastwest;part=1;labelBackgroundColor=none;strokeColor=#788AA3;fontColor=#46495D;" parent="s8aTRHkVXZxyGGqHwzvx-303" vertex="1" connectable="0">
          <mxGeometry width="30" height="30" as="geometry" />
        </mxCell>
        <mxCell id="s8aTRHkVXZxyGGqHwzvx-305" value="부모 코드명" style="shape=partialRectangle;top=0;left=0;right=0;bottom=0;html=1;align=left;verticalAlign=top;fillColor=none;spacingLeft=34;spacingRight=4;whiteSpace=wrap;overflow=hidden;rotatable=0;points=[[0,0.5],[1,0.5]];portConstraint=eastwest;dropTarget=0;labelBackgroundColor=none;strokeColor=#788AA3;fontColor=#46495D;" parent="s8aTRHkVXZxyGGqHwzvx-302" vertex="1">
          <mxGeometry y="56" width="160" height="26" as="geometry" />
        </mxCell>
        <mxCell id="s8aTRHkVXZxyGGqHwzvx-306" value="" style="shape=partialRectangle;top=0;left=0;bottom=0;html=1;fillColor=none;align=left;verticalAlign=top;spacingLeft=4;spacingRight=4;whiteSpace=wrap;overflow=hidden;rotatable=0;points=[];portConstraint=eastwest;part=1;labelBackgroundColor=none;strokeColor=#788AA3;fontColor=#46495D;" parent="s8aTRHkVXZxyGGqHwzvx-305" vertex="1" connectable="0">
          <mxGeometry width="30" height="26" as="geometry" />
        </mxCell>
        <mxCell id="s8aTRHkVXZxyGGqHwzvx-309" value="부모 코드 설명" style="shape=partialRectangle;top=0;left=0;right=0;bottom=0;html=1;align=left;verticalAlign=top;fillColor=none;spacingLeft=34;spacingRight=4;whiteSpace=wrap;overflow=hidden;rotatable=0;points=[[0,0.5],[1,0.5]];portConstraint=eastwest;dropTarget=0;labelBackgroundColor=none;strokeColor=#788AA3;fontColor=#46495D;" parent="s8aTRHkVXZxyGGqHwzvx-302" vertex="1">
          <mxGeometry y="82" width="160" height="26" as="geometry" />
        </mxCell>
        <mxCell id="s8aTRHkVXZxyGGqHwzvx-310" value="" style="shape=partialRectangle;top=0;left=0;bottom=0;html=1;fillColor=none;align=left;verticalAlign=top;spacingLeft=4;spacingRight=4;whiteSpace=wrap;overflow=hidden;rotatable=0;points=[];portConstraint=eastwest;part=1;labelBackgroundColor=none;strokeColor=#788AA3;fontColor=#46495D;" parent="s8aTRHkVXZxyGGqHwzvx-309" vertex="1" connectable="0">
          <mxGeometry width="30" height="26" as="geometry" />
        </mxCell>
        <mxCell id="s8aTRHkVXZxyGGqHwzvx-311" value="분류 코드" style="shape=partialRectangle;top=0;left=0;right=0;bottom=0;html=1;align=left;verticalAlign=top;fillColor=none;spacingLeft=34;spacingRight=4;whiteSpace=wrap;overflow=hidden;rotatable=0;points=[[0,0.5],[1,0.5]];portConstraint=eastwest;dropTarget=0;labelBackgroundColor=none;strokeColor=#788AA3;fontColor=#46495D;" parent="s8aTRHkVXZxyGGqHwzvx-302" vertex="1">
          <mxGeometry y="108" width="160" height="26" as="geometry" />
        </mxCell>
        <mxCell id="s8aTRHkVXZxyGGqHwzvx-312" value="FK" style="shape=partialRectangle;top=0;left=0;bottom=0;html=1;fillColor=none;align=left;verticalAlign=top;spacingLeft=4;spacingRight=4;whiteSpace=wrap;overflow=hidden;rotatable=0;points=[];portConstraint=eastwest;part=1;labelBackgroundColor=none;strokeColor=#788AA3;fontColor=#46495D;" parent="s8aTRHkVXZxyGGqHwzvx-311" vertex="1" connectable="0">
          <mxGeometry width="30" height="26" as="geometry" />
        </mxCell>
        <mxCell id="s8aTRHkVXZxyGGqHwzvx-315" value="" style="shape=partialRectangle;top=0;left=0;right=0;bottom=0;html=1;align=left;verticalAlign=top;fillColor=none;spacingLeft=34;spacingRight=4;whiteSpace=wrap;overflow=hidden;rotatable=0;points=[[0,0.5],[1,0.5]];portConstraint=eastwest;dropTarget=0;labelBackgroundColor=none;strokeColor=#788AA3;fontColor=#46495D;" parent="s8aTRHkVXZxyGGqHwzvx-302" vertex="1">
          <mxGeometry y="134" width="160" height="10" as="geometry" />
        </mxCell>
        <mxCell id="s8aTRHkVXZxyGGqHwzvx-316" value="" style="shape=partialRectangle;top=0;left=0;bottom=0;html=1;fillColor=none;align=left;verticalAlign=top;spacingLeft=4;spacingRight=4;whiteSpace=wrap;overflow=hidden;rotatable=0;points=[];portConstraint=eastwest;part=1;labelBackgroundColor=none;strokeColor=#788AA3;fontColor=#46495D;" parent="s8aTRHkVXZxyGGqHwzvx-315" vertex="1" connectable="0">
          <mxGeometry width="30" height="10" as="geometry" />
        </mxCell>
        <mxCell id="s8aTRHkVXZxyGGqHwzvx-317" value="코드" style="swimlane;html=1;fontStyle=0;childLayout=stackLayout;horizontal=1;startSize=26;fillColor=#B2C9AB;horizontalStack=0;resizeParent=1;resizeLast=0;collapsible=1;marginBottom=0;swimlaneFillColor=#ffffff;align=center;rounded=0;shadow=0;comic=0;labelBackgroundColor=none;strokeWidth=1;fontFamily=Verdana;fontSize=14;strokeColor=#788AA3;fontColor=#46495D;" parent="1" vertex="1">
          <mxGeometry x="-210" y="50" width="160" height="170" as="geometry" />
        </mxCell>
        <mxCell id="s8aTRHkVXZxyGGqHwzvx-318" value="코드" style="shape=partialRectangle;top=0;left=0;right=0;bottom=1;html=1;align=left;verticalAlign=middle;fillColor=none;spacingLeft=34;spacingRight=4;whiteSpace=wrap;overflow=hidden;rotatable=0;points=[[0,0.5],[1,0.5]];portConstraint=eastwest;dropTarget=0;fontStyle=5;labelBackgroundColor=none;strokeColor=#788AA3;fontColor=#46495D;" parent="s8aTRHkVXZxyGGqHwzvx-317" vertex="1">
          <mxGeometry y="26" width="160" height="30" as="geometry" />
        </mxCell>
        <mxCell id="s8aTRHkVXZxyGGqHwzvx-319" value="PK" style="shape=partialRectangle;top=0;left=0;bottom=0;html=1;fillColor=none;align=left;verticalAlign=middle;spacingLeft=4;spacingRight=4;whiteSpace=wrap;overflow=hidden;rotatable=0;points=[];portConstraint=eastwest;part=1;labelBackgroundColor=none;strokeColor=#788AA3;fontColor=#46495D;" parent="s8aTRHkVXZxyGGqHwzvx-318" vertex="1" connectable="0">
          <mxGeometry width="30" height="30" as="geometry" />
        </mxCell>
        <mxCell id="s8aTRHkVXZxyGGqHwzvx-320" value="부모 코드" style="shape=partialRectangle;top=0;left=0;right=0;bottom=0;html=1;align=left;verticalAlign=top;fillColor=none;spacingLeft=34;spacingRight=4;whiteSpace=wrap;overflow=hidden;rotatable=0;points=[[0,0.5],[1,0.5]];portConstraint=eastwest;dropTarget=0;labelBackgroundColor=none;strokeColor=#788AA3;fontColor=#46495D;" parent="s8aTRHkVXZxyGGqHwzvx-317" vertex="1">
          <mxGeometry y="56" width="160" height="26" as="geometry" />
        </mxCell>
        <mxCell id="s8aTRHkVXZxyGGqHwzvx-321" value="FK" style="shape=partialRectangle;top=0;left=0;bottom=0;html=1;fillColor=none;align=left;verticalAlign=top;spacingLeft=4;spacingRight=4;whiteSpace=wrap;overflow=hidden;rotatable=0;points=[];portConstraint=eastwest;part=1;labelBackgroundColor=none;strokeColor=#788AA3;fontColor=#46495D;" parent="s8aTRHkVXZxyGGqHwzvx-320" vertex="1" connectable="0">
          <mxGeometry width="30" height="26" as="geometry" />
        </mxCell>
        <mxCell id="s8aTRHkVXZxyGGqHwzvx-322" value="코드명" style="shape=partialRectangle;top=0;left=0;right=0;bottom=0;html=1;align=left;verticalAlign=top;fillColor=none;spacingLeft=34;spacingRight=4;whiteSpace=wrap;overflow=hidden;rotatable=0;points=[[0,0.5],[1,0.5]];portConstraint=eastwest;dropTarget=0;labelBackgroundColor=none;strokeColor=#788AA3;fontColor=#46495D;" parent="s8aTRHkVXZxyGGqHwzvx-317" vertex="1">
          <mxGeometry y="82" width="160" height="26" as="geometry" />
        </mxCell>
        <mxCell id="s8aTRHkVXZxyGGqHwzvx-323" value="" style="shape=partialRectangle;top=0;left=0;bottom=0;html=1;fillColor=none;align=left;verticalAlign=top;spacingLeft=4;spacingRight=4;whiteSpace=wrap;overflow=hidden;rotatable=0;points=[];portConstraint=eastwest;part=1;labelBackgroundColor=none;strokeColor=#788AA3;fontColor=#46495D;" parent="s8aTRHkVXZxyGGqHwzvx-322" vertex="1" connectable="0">
          <mxGeometry width="30" height="26" as="geometry" />
        </mxCell>
        <mxCell id="s8aTRHkVXZxyGGqHwzvx-324" value="코드 설명" style="shape=partialRectangle;top=0;left=0;right=0;bottom=0;html=1;align=left;verticalAlign=top;fillColor=none;spacingLeft=34;spacingRight=4;whiteSpace=wrap;overflow=hidden;rotatable=0;points=[[0,0.5],[1,0.5]];portConstraint=eastwest;dropTarget=0;labelBackgroundColor=none;strokeColor=#788AA3;fontColor=#46495D;" parent="s8aTRHkVXZxyGGqHwzvx-317" vertex="1">
          <mxGeometry y="108" width="160" height="26" as="geometry" />
        </mxCell>
        <mxCell id="s8aTRHkVXZxyGGqHwzvx-325" value="" style="shape=partialRectangle;top=0;left=0;bottom=0;html=1;fillColor=none;align=left;verticalAlign=top;spacingLeft=4;spacingRight=4;whiteSpace=wrap;overflow=hidden;rotatable=0;points=[];portConstraint=eastwest;part=1;labelBackgroundColor=none;strokeColor=#788AA3;fontColor=#46495D;" parent="s8aTRHkVXZxyGGqHwzvx-324" vertex="1" connectable="0">
          <mxGeometry width="30" height="26" as="geometry" />
        </mxCell>
        <mxCell id="s8aTRHkVXZxyGGqHwzvx-331" value="코드 정렬 순서" style="shape=partialRectangle;top=0;left=0;right=0;bottom=0;html=1;align=left;verticalAlign=top;fillColor=none;spacingLeft=34;spacingRight=4;whiteSpace=wrap;overflow=hidden;rotatable=0;points=[[0,0.5],[1,0.5]];portConstraint=eastwest;dropTarget=0;labelBackgroundColor=none;strokeColor=#788AA3;fontColor=#46495D;" parent="s8aTRHkVXZxyGGqHwzvx-317" vertex="1">
          <mxGeometry y="134" width="160" height="26" as="geometry" />
        </mxCell>
        <mxCell id="s8aTRHkVXZxyGGqHwzvx-332" value="" style="shape=partialRectangle;top=0;left=0;bottom=0;html=1;fillColor=none;align=left;verticalAlign=top;spacingLeft=4;spacingRight=4;whiteSpace=wrap;overflow=hidden;rotatable=0;points=[];portConstraint=eastwest;part=1;labelBackgroundColor=none;strokeColor=#788AA3;fontColor=#46495D;" parent="s8aTRHkVXZxyGGqHwzvx-331" vertex="1" connectable="0">
          <mxGeometry width="30" height="26" as="geometry" />
        </mxCell>
        <mxCell id="s8aTRHkVXZxyGGqHwzvx-326" value="" style="shape=partialRectangle;top=0;left=0;right=0;bottom=0;html=1;align=left;verticalAlign=top;fillColor=none;spacingLeft=34;spacingRight=4;whiteSpace=wrap;overflow=hidden;rotatable=0;points=[[0,0.5],[1,0.5]];portConstraint=eastwest;dropTarget=0;labelBackgroundColor=none;strokeColor=#788AA3;fontColor=#46495D;" parent="s8aTRHkVXZxyGGqHwzvx-317" vertex="1">
          <mxGeometry y="160" width="160" height="10" as="geometry" />
        </mxCell>
        <mxCell id="s8aTRHkVXZxyGGqHwzvx-327" value="" style="shape=partialRectangle;top=0;left=0;bottom=0;html=1;fillColor=none;align=left;verticalAlign=top;spacingLeft=4;spacingRight=4;whiteSpace=wrap;overflow=hidden;rotatable=0;points=[];portConstraint=eastwest;part=1;labelBackgroundColor=none;strokeColor=#788AA3;fontColor=#46495D;" parent="s8aTRHkVXZxyGGqHwzvx-326" vertex="1" connectable="0">
          <mxGeometry width="30" height="10" as="geometry" />
        </mxCell>
        <mxCell id="s8aTRHkVXZxyGGqHwzvx-330" value="" style="edgeStyle=entityRelationEdgeStyle;fontSize=12;html=1;endArrow=ERzeroToMany;startArrow=ERmandOne;rounded=0;strokeColor=#788AA3;fontColor=#46495D;fillColor=#B2C9AB;" parent="1" source="s8aTRHkVXZxyGGqHwzvx-303" target="s8aTRHkVXZxyGGqHwzvx-320" edge="1">
          <mxGeometry width="100" height="100" relative="1" as="geometry">
            <mxPoint x="-210" y="460" as="sourcePoint" />
            <mxPoint x="-110" y="360" as="targetPoint" />
          </mxGeometry>
        </mxCell>
        <mxCell id="s8aTRHkVXZxyGGqHwzvx-335" value="&lt;div&gt;&lt;font&gt;&lt;br&gt;&lt;/font&gt;&lt;/div&gt;&lt;ul&gt;&lt;li&gt;&lt;font&gt;코드관리 방식은 Enum, DB 중 선택&lt;/font&gt;&lt;/li&gt;&lt;li&gt;&lt;font&gt;DB 방식 사용시 위 부모코드, 코드 테이블 활용&lt;br&gt;&lt;/font&gt;&lt;/li&gt;&lt;li&gt;&quot;성별&quot; 과 같이 향후 확장 및 &lt;u style=&quot;&quot;&gt;&lt;font color=&quot;#ff6666&quot;&gt;변경 확률이 적은 항목에 대해서는 Enum 으로 관리 권장&lt;/font&gt;&lt;/u&gt;&lt;/li&gt;&lt;li&gt;&lt;font&gt;활용 예는 아래와 같음&lt;br&gt;ex)&amp;nbsp; 시술가능대상자 테이블의 &quot;피부타입 옵션1&quot; 사용 예시&lt;br&gt;step1. 분류코드 등록 -&amp;gt; cl_code=&#39;tratment&#39;, cl_code_nm=&#39;시술&#39;&lt;br&gt;step2. 부모코드 등록 -&amp;gt; p_code=&#39;skin_type&#39;, p_code_nm=&#39;피부타입&#39;&lt;br&gt;step3. 코드 등록&amp;nbsp;&lt;/font&gt;&lt;br&gt;&amp;nbsp; &amp;nbsp; -&amp;gt;&amp;nbsp;p_code=&#39;skin_type&#39;,&amp;nbsp;code=&#39;dry&#39;,&amp;nbsp;code_nm=&#39;Dry&#39;&lt;br&gt;&amp;nbsp; &amp;nbsp; -&amp;gt;&amp;nbsp;p_code=&#39;skin_type&#39;,&amp;nbsp;code=&#39;normal&#39;,&amp;nbsp;code_nm=&#39;Normal&#39;&lt;br&gt;&lt;br&gt;&lt;font color=&quot;#ff6666&quot;&gt;※분류코드 테이블은 필수 사항은 아니지만&lt;br&gt;사용 시 화장품,시술 등과 같이 도메인별 사용 코드 관리가 가능하므로 확장 및 유지관리에 용이 함&lt;/font&gt;&lt;/li&gt;&lt;/ul&gt;" style="text;strokeColor=#666666;fillColor=#f5f5f5;html=1;whiteSpace=wrap;verticalAlign=middle;overflow=hidden;fontColor=#333333;labelBackgroundColor=default;" parent="1" vertex="1">
          <mxGeometry x="-670" y="230" width="540" height="260" as="geometry" />
        </mxCell>
        <mxCell id="s8aTRHkVXZxyGGqHwzvx-336" value="분류코드" style="swimlane;html=1;fontStyle=0;childLayout=stackLayout;horizontal=1;startSize=26;fillColor=#B2C9AB;horizontalStack=0;resizeParent=1;resizeLast=0;collapsible=1;marginBottom=0;swimlaneFillColor=#ffffff;align=center;rounded=0;shadow=0;comic=0;labelBackgroundColor=none;strokeWidth=1;fontFamily=Verdana;fontSize=14;strokeColor=#788AA3;fontColor=#46495D;" parent="1" vertex="1">
          <mxGeometry x="-670" y="50" width="160" height="144" as="geometry" />
        </mxCell>
        <mxCell id="s8aTRHkVXZxyGGqHwzvx-337" value="분류 코드" style="shape=partialRectangle;top=0;left=0;right=0;bottom=1;html=1;align=left;verticalAlign=middle;fillColor=none;spacingLeft=34;spacingRight=4;whiteSpace=wrap;overflow=hidden;rotatable=0;points=[[0,0.5],[1,0.5]];portConstraint=eastwest;dropTarget=0;fontStyle=5;labelBackgroundColor=none;strokeColor=#788AA3;fontColor=#46495D;" parent="s8aTRHkVXZxyGGqHwzvx-336" vertex="1">
          <mxGeometry y="26" width="160" height="30" as="geometry" />
        </mxCell>
        <mxCell id="s8aTRHkVXZxyGGqHwzvx-338" value="PK" style="shape=partialRectangle;top=0;left=0;bottom=0;html=1;fillColor=none;align=left;verticalAlign=middle;spacingLeft=4;spacingRight=4;whiteSpace=wrap;overflow=hidden;rotatable=0;points=[];portConstraint=eastwest;part=1;labelBackgroundColor=none;strokeColor=#788AA3;fontColor=#46495D;" parent="s8aTRHkVXZxyGGqHwzvx-337" vertex="1" connectable="0">
          <mxGeometry width="30" height="30" as="geometry" />
        </mxCell>
        <mxCell id="s8aTRHkVXZxyGGqHwzvx-339" value="분류 코드명" style="shape=partialRectangle;top=0;left=0;right=0;bottom=0;html=1;align=left;verticalAlign=top;fillColor=none;spacingLeft=34;spacingRight=4;whiteSpace=wrap;overflow=hidden;rotatable=0;points=[[0,0.5],[1,0.5]];portConstraint=eastwest;dropTarget=0;labelBackgroundColor=none;strokeColor=#788AA3;fontColor=#46495D;" parent="s8aTRHkVXZxyGGqHwzvx-336" vertex="1">
          <mxGeometry y="56" width="160" height="26" as="geometry" />
        </mxCell>
        <mxCell id="s8aTRHkVXZxyGGqHwzvx-340" value="" style="shape=partialRectangle;top=0;left=0;bottom=0;html=1;fillColor=none;align=left;verticalAlign=top;spacingLeft=4;spacingRight=4;whiteSpace=wrap;overflow=hidden;rotatable=0;points=[];portConstraint=eastwest;part=1;labelBackgroundColor=none;strokeColor=#788AA3;fontColor=#46495D;" parent="s8aTRHkVXZxyGGqHwzvx-339" vertex="1" connectable="0">
          <mxGeometry width="30" height="26" as="geometry" />
        </mxCell>
        <mxCell id="s8aTRHkVXZxyGGqHwzvx-341" value="분류 코드 설명" style="shape=partialRectangle;top=0;left=0;right=0;bottom=0;html=1;align=left;verticalAlign=top;fillColor=none;spacingLeft=34;spacingRight=4;whiteSpace=wrap;overflow=hidden;rotatable=0;points=[[0,0.5],[1,0.5]];portConstraint=eastwest;dropTarget=0;labelBackgroundColor=none;strokeColor=#788AA3;fontColor=#46495D;" parent="s8aTRHkVXZxyGGqHwzvx-336" vertex="1">
          <mxGeometry y="82" width="160" height="26" as="geometry" />
        </mxCell>
        <mxCell id="s8aTRHkVXZxyGGqHwzvx-342" value="" style="shape=partialRectangle;top=0;left=0;bottom=0;html=1;fillColor=none;align=left;verticalAlign=top;spacingLeft=4;spacingRight=4;whiteSpace=wrap;overflow=hidden;rotatable=0;points=[];portConstraint=eastwest;part=1;labelBackgroundColor=none;strokeColor=#788AA3;fontColor=#46495D;" parent="s8aTRHkVXZxyGGqHwzvx-341" vertex="1" connectable="0">
          <mxGeometry width="30" height="26" as="geometry" />
        </mxCell>
        <mxCell id="s8aTRHkVXZxyGGqHwzvx-343" value="" style="shape=partialRectangle;top=0;left=0;right=0;bottom=0;html=1;align=left;verticalAlign=top;fillColor=none;spacingLeft=34;spacingRight=4;whiteSpace=wrap;overflow=hidden;rotatable=0;points=[[0,0.5],[1,0.5]];portConstraint=eastwest;dropTarget=0;labelBackgroundColor=none;strokeColor=#788AA3;fontColor=#46495D;" parent="s8aTRHkVXZxyGGqHwzvx-336" vertex="1">
          <mxGeometry y="108" width="160" height="26" as="geometry" />
        </mxCell>
        <mxCell id="s8aTRHkVXZxyGGqHwzvx-344" value="" style="shape=partialRectangle;top=0;left=0;bottom=0;html=1;fillColor=none;align=left;verticalAlign=top;spacingLeft=4;spacingRight=4;whiteSpace=wrap;overflow=hidden;rotatable=0;points=[];portConstraint=eastwest;part=1;labelBackgroundColor=none;strokeColor=#788AA3;fontColor=#46495D;" parent="s8aTRHkVXZxyGGqHwzvx-343" vertex="1" connectable="0">
          <mxGeometry width="30" height="26" as="geometry" />
        </mxCell>
        <mxCell id="s8aTRHkVXZxyGGqHwzvx-345" value="" style="shape=partialRectangle;top=0;left=0;right=0;bottom=0;html=1;align=left;verticalAlign=top;fillColor=none;spacingLeft=34;spacingRight=4;whiteSpace=wrap;overflow=hidden;rotatable=0;points=[[0,0.5],[1,0.5]];portConstraint=eastwest;dropTarget=0;labelBackgroundColor=none;strokeColor=#788AA3;fontColor=#46495D;" parent="s8aTRHkVXZxyGGqHwzvx-336" vertex="1">
          <mxGeometry y="134" width="160" height="10" as="geometry" />
        </mxCell>
        <mxCell id="s8aTRHkVXZxyGGqHwzvx-346" value="" style="shape=partialRectangle;top=0;left=0;bottom=0;html=1;fillColor=none;align=left;verticalAlign=top;spacingLeft=4;spacingRight=4;whiteSpace=wrap;overflow=hidden;rotatable=0;points=[];portConstraint=eastwest;part=1;labelBackgroundColor=none;strokeColor=#788AA3;fontColor=#46495D;" parent="s8aTRHkVXZxyGGqHwzvx-345" vertex="1" connectable="0">
          <mxGeometry width="30" height="10" as="geometry" />
        </mxCell>
        <mxCell id="s8aTRHkVXZxyGGqHwzvx-347" value="" style="edgeStyle=entityRelationEdgeStyle;fontSize=12;html=1;endArrow=ERzeroToMany;startArrow=ERmandOne;rounded=0;strokeColor=#788AA3;fontColor=#46495D;fillColor=#B2C9AB;exitX=1;exitY=0.5;exitDx=0;exitDy=0;entryX=-0.015;entryY=0.052;entryDx=0;entryDy=0;entryPerimeter=0;" parent="1" source="s8aTRHkVXZxyGGqHwzvx-337" target="s8aTRHkVXZxyGGqHwzvx-311" edge="1">
          <mxGeometry width="100" height="100" relative="1" as="geometry">
            <mxPoint x="-270" y="101" as="sourcePoint" />
            <mxPoint x="-200" y="129" as="targetPoint" />
          </mxGeometry>
        </mxCell>
        <mxCell id="s8aTRHkVXZxyGGqHwzvx-348" value="&lt;div&gt;&lt;font&gt;&lt;br&gt;&lt;/font&gt;&lt;/div&gt;&lt;ul&gt;&lt;li&gt;시술가능/추천대상자 테이블의&lt;font color=&quot;#ff6666&quot;&gt;&amp;nbsp;&quot;피부타입&quot; 코드는 Enum 으로 관리&lt;/font&gt;&lt;/li&gt;&lt;li&gt;시술가능/추천대상자 테이블 &lt;font color=&quot;#ff6666&quot;&gt;Insert/Update 시 피부타입 데이터 검증&lt;br&gt;&lt;/font&gt;1. 피부타입의 값이 Enum으로 관리하고 있는 코드 목록에 존재하는지&lt;br&gt;2. 피부타입 옵션1~3 선택값에 대해 조합규칙으로 산출된 값의 목록과 일치하는지&amp;nbsp;&lt;/li&gt;&lt;/ul&gt;" style="text;html=1;whiteSpace=wrap;verticalAlign=middle;overflow=hidden;labelBackgroundColor=default;fillColor=default;" parent="1" vertex="1">
          <mxGeometry x="90" y="850" width="650" height="130" as="geometry" />
        </mxCell>
        <mxCell id="suNme6-eA1xpTHc4A4N6-63" value="시술 카테고리" style="swimlane;html=1;fontStyle=0;childLayout=stackLayout;horizontal=1;startSize=26;fillColor=#B2C9AB;horizontalStack=0;resizeParent=1;resizeLast=0;collapsible=1;marginBottom=0;swimlaneFillColor=#ffffff;align=center;rounded=0;shadow=0;comic=0;labelBackgroundColor=none;strokeWidth=1;fontFamily=Verdana;fontSize=14;strokeColor=#788AA3;fontColor=#46495D;" parent="1" vertex="1">
          <mxGeometry x="10" y="-500" width="160" height="100" as="geometry" />
        </mxCell>
        <mxCell id="suNme6-eA1xpTHc4A4N6-64" value="카테고리ID" style="shape=partialRectangle;top=0;left=0;right=0;bottom=1;html=1;align=left;verticalAlign=middle;fillColor=none;spacingLeft=34;spacingRight=4;whiteSpace=wrap;overflow=hidden;rotatable=0;points=[[0,0.5],[1,0.5]];portConstraint=eastwest;dropTarget=0;fontStyle=5;labelBackgroundColor=none;strokeColor=#788AA3;fontColor=#46495D;" parent="suNme6-eA1xpTHc4A4N6-63" vertex="1">
          <mxGeometry y="26" width="160" height="30" as="geometry" />
        </mxCell>
        <mxCell id="suNme6-eA1xpTHc4A4N6-65" value="PK" style="shape=partialRectangle;top=0;left=0;bottom=0;html=1;fillColor=none;align=left;verticalAlign=middle;spacingLeft=4;spacingRight=4;whiteSpace=wrap;overflow=hidden;rotatable=0;points=[];portConstraint=eastwest;part=1;labelBackgroundColor=none;strokeColor=#788AA3;fontColor=#46495D;" parent="suNme6-eA1xpTHc4A4N6-64" vertex="1" connectable="0">
          <mxGeometry width="30" height="30" as="geometry" />
        </mxCell>
        <mxCell id="suNme6-eA1xpTHc4A4N6-68" value="카테고리명" style="shape=partialRectangle;top=0;left=0;right=0;bottom=0;html=1;align=left;verticalAlign=top;fillColor=none;spacingLeft=34;spacingRight=4;whiteSpace=wrap;overflow=hidden;rotatable=0;points=[[0,0.5],[1,0.5]];portConstraint=eastwest;dropTarget=0;labelBackgroundColor=none;strokeColor=#788AA3;fontColor=#46495D;" parent="suNme6-eA1xpTHc4A4N6-63" vertex="1">
          <mxGeometry y="56" width="160" height="26" as="geometry" />
        </mxCell>
        <mxCell id="suNme6-eA1xpTHc4A4N6-69" value="" style="shape=partialRectangle;top=0;left=0;bottom=0;html=1;fillColor=none;align=left;verticalAlign=top;spacingLeft=4;spacingRight=4;whiteSpace=wrap;overflow=hidden;rotatable=0;points=[];portConstraint=eastwest;part=1;labelBackgroundColor=none;strokeColor=#788AA3;fontColor=#46495D;" parent="suNme6-eA1xpTHc4A4N6-68" vertex="1" connectable="0">
          <mxGeometry width="30" height="26" as="geometry" />
        </mxCell>
        <mxCell id="suNme6-eA1xpTHc4A4N6-80" value="" style="shape=partialRectangle;top=0;left=0;right=0;bottom=0;html=1;align=left;verticalAlign=top;fillColor=none;spacingLeft=34;spacingRight=4;whiteSpace=wrap;overflow=hidden;rotatable=0;points=[[0,0.5],[1,0.5]];portConstraint=eastwest;dropTarget=0;labelBackgroundColor=none;strokeColor=#788AA3;fontColor=#46495D;" parent="suNme6-eA1xpTHc4A4N6-63" vertex="1">
          <mxGeometry y="82" width="160" height="10" as="geometry" />
        </mxCell>
        <mxCell id="suNme6-eA1xpTHc4A4N6-81" value="" style="shape=partialRectangle;top=0;left=0;bottom=0;html=1;fillColor=none;align=left;verticalAlign=top;spacingLeft=4;spacingRight=4;whiteSpace=wrap;overflow=hidden;rotatable=0;points=[];portConstraint=eastwest;part=1;labelBackgroundColor=none;strokeColor=#788AA3;fontColor=#46495D;" parent="suNme6-eA1xpTHc4A4N6-80" vertex="1" connectable="0">
          <mxGeometry width="30" height="10" as="geometry" />
        </mxCell>
        <mxCell id="suNme6-eA1xpTHc4A4N6-82" value="시술" style="swimlane;html=1;fontStyle=0;childLayout=stackLayout;horizontal=1;startSize=26;fillColor=#B2C9AB;horizontalStack=0;resizeParent=1;resizeLast=0;collapsible=1;marginBottom=0;swimlaneFillColor=#ffffff;align=center;rounded=0;shadow=0;comic=0;labelBackgroundColor=none;strokeWidth=1;fontFamily=Verdana;fontSize=14;strokeColor=#788AA3;fontColor=#46495D;" parent="1" vertex="1">
          <mxGeometry x="250" y="-500" width="160" height="224" as="geometry" />
        </mxCell>
        <mxCell id="suNme6-eA1xpTHc4A4N6-83" value="시술ID" style="shape=partialRectangle;top=0;left=0;right=0;bottom=1;html=1;align=left;verticalAlign=middle;fillColor=none;spacingLeft=34;spacingRight=4;whiteSpace=wrap;overflow=hidden;rotatable=0;points=[[0,0.5],[1,0.5]];portConstraint=eastwest;dropTarget=0;fontStyle=5;labelBackgroundColor=none;strokeColor=#788AA3;fontColor=#46495D;" parent="suNme6-eA1xpTHc4A4N6-82" vertex="1">
          <mxGeometry y="26" width="160" height="30" as="geometry" />
        </mxCell>
        <mxCell id="suNme6-eA1xpTHc4A4N6-84" value="PK" style="shape=partialRectangle;top=0;left=0;bottom=0;html=1;fillColor=none;align=left;verticalAlign=middle;spacingLeft=4;spacingRight=4;whiteSpace=wrap;overflow=hidden;rotatable=0;points=[];portConstraint=eastwest;part=1;labelBackgroundColor=none;strokeColor=#788AA3;fontColor=#46495D;" parent="suNme6-eA1xpTHc4A4N6-83" vertex="1" connectable="0">
          <mxGeometry width="30" height="30" as="geometry" />
        </mxCell>
        <mxCell id="suNme6-eA1xpTHc4A4N6-85" value="카테고리ID" style="shape=partialRectangle;top=0;left=0;right=0;bottom=0;html=1;align=left;verticalAlign=top;fillColor=none;spacingLeft=34;spacingRight=4;whiteSpace=wrap;overflow=hidden;rotatable=0;points=[[0,0.5],[1,0.5]];portConstraint=eastwest;dropTarget=0;labelBackgroundColor=none;strokeColor=#788AA3;fontColor=#46495D;" parent="suNme6-eA1xpTHc4A4N6-82" vertex="1">
          <mxGeometry y="56" width="160" height="26" as="geometry" />
        </mxCell>
        <mxCell id="suNme6-eA1xpTHc4A4N6-86" value="FK" style="shape=partialRectangle;top=0;left=0;bottom=0;html=1;fillColor=none;align=left;verticalAlign=top;spacingLeft=4;spacingRight=4;whiteSpace=wrap;overflow=hidden;rotatable=0;points=[];portConstraint=eastwest;part=1;labelBackgroundColor=none;strokeColor=#788AA3;fontColor=#46495D;" parent="suNme6-eA1xpTHc4A4N6-85" vertex="1" connectable="0">
          <mxGeometry width="30" height="26" as="geometry" />
        </mxCell>
        <mxCell id="suNme6-eA1xpTHc4A4N6-95" value="시술명" style="shape=partialRectangle;top=0;left=0;right=0;bottom=0;html=1;align=left;verticalAlign=top;fillColor=none;spacingLeft=34;spacingRight=4;whiteSpace=wrap;overflow=hidden;rotatable=0;points=[[0,0.5],[1,0.5]];portConstraint=eastwest;dropTarget=0;labelBackgroundColor=none;strokeColor=#788AA3;fontColor=#46495D;" parent="suNme6-eA1xpTHc4A4N6-82" vertex="1">
          <mxGeometry y="82" width="160" height="26" as="geometry" />
        </mxCell>
        <mxCell id="suNme6-eA1xpTHc4A4N6-96" value="" style="shape=partialRectangle;top=0;left=0;bottom=0;html=1;fillColor=none;align=left;verticalAlign=top;spacingLeft=4;spacingRight=4;whiteSpace=wrap;overflow=hidden;rotatable=0;points=[];portConstraint=eastwest;part=1;labelBackgroundColor=none;strokeColor=#788AA3;fontColor=#46495D;" parent="suNme6-eA1xpTHc4A4N6-95" vertex="1" connectable="0">
          <mxGeometry width="30" height="26" as="geometry" />
        </mxCell>
        <mxCell id="Vb2O8qSX6tOqTRUZdygF-24" value="시술 이미지" style="shape=partialRectangle;top=0;left=0;right=0;bottom=0;html=1;align=left;verticalAlign=top;fillColor=none;spacingLeft=34;spacingRight=4;whiteSpace=wrap;overflow=hidden;rotatable=0;points=[[0,0.5],[1,0.5]];portConstraint=eastwest;dropTarget=0;labelBackgroundColor=none;strokeColor=#788AA3;fontColor=#46495D;" vertex="1" parent="suNme6-eA1xpTHc4A4N6-82">
          <mxGeometry y="108" width="160" height="26" as="geometry" />
        </mxCell>
        <mxCell id="Vb2O8qSX6tOqTRUZdygF-25" value="" style="shape=partialRectangle;top=0;left=0;bottom=0;html=1;fillColor=none;align=left;verticalAlign=top;spacingLeft=4;spacingRight=4;whiteSpace=wrap;overflow=hidden;rotatable=0;points=[];portConstraint=eastwest;part=1;labelBackgroundColor=none;strokeColor=#788AA3;fontColor=#46495D;" vertex="1" connectable="0" parent="Vb2O8qSX6tOqTRUZdygF-24">
          <mxGeometry width="30" height="26" as="geometry" />
        </mxCell>
        <mxCell id="Vb2O8qSX6tOqTRUZdygF-38" value="제조사" style="shape=partialRectangle;top=0;left=0;right=0;bottom=0;html=1;align=left;verticalAlign=top;fillColor=none;spacingLeft=34;spacingRight=4;whiteSpace=wrap;overflow=hidden;rotatable=0;points=[[0,0.5],[1,0.5]];portConstraint=eastwest;dropTarget=0;labelBackgroundColor=none;strokeColor=#788AA3;fontColor=#46495D;" vertex="1" parent="suNme6-eA1xpTHc4A4N6-82">
          <mxGeometry y="134" width="160" height="26" as="geometry" />
        </mxCell>
        <mxCell id="Vb2O8qSX6tOqTRUZdygF-39" value="" style="shape=partialRectangle;top=0;left=0;bottom=0;html=1;fillColor=none;align=left;verticalAlign=top;spacingLeft=4;spacingRight=4;whiteSpace=wrap;overflow=hidden;rotatable=0;points=[];portConstraint=eastwest;part=1;labelBackgroundColor=none;strokeColor=#788AA3;fontColor=#46495D;" vertex="1" connectable="0" parent="Vb2O8qSX6tOqTRUZdygF-38">
          <mxGeometry width="30" height="26" as="geometry" />
        </mxCell>
        <mxCell id="Vb2O8qSX6tOqTRUZdygF-36" value="제조국" style="shape=partialRectangle;top=0;left=0;right=0;bottom=0;html=1;align=left;verticalAlign=top;fillColor=none;spacingLeft=34;spacingRight=4;whiteSpace=wrap;overflow=hidden;rotatable=0;points=[[0,0.5],[1,0.5]];portConstraint=eastwest;dropTarget=0;labelBackgroundColor=none;strokeColor=#788AA3;fontColor=#46495D;" vertex="1" parent="suNme6-eA1xpTHc4A4N6-82">
          <mxGeometry y="160" width="160" height="26" as="geometry" />
        </mxCell>
        <mxCell id="Vb2O8qSX6tOqTRUZdygF-37" value="" style="shape=partialRectangle;top=0;left=0;bottom=0;html=1;fillColor=none;align=left;verticalAlign=top;spacingLeft=4;spacingRight=4;whiteSpace=wrap;overflow=hidden;rotatable=0;points=[];portConstraint=eastwest;part=1;labelBackgroundColor=none;strokeColor=#788AA3;fontColor=#46495D;" vertex="1" connectable="0" parent="Vb2O8qSX6tOqTRUZdygF-36">
          <mxGeometry width="30" height="26" as="geometry" />
        </mxCell>
        <mxCell id="Vb2O8qSX6tOqTRUZdygF-34" value="모델명" style="shape=partialRectangle;top=0;left=0;right=0;bottom=0;html=1;align=left;verticalAlign=top;fillColor=none;spacingLeft=34;spacingRight=4;whiteSpace=wrap;overflow=hidden;rotatable=0;points=[[0,0.5],[1,0.5]];portConstraint=eastwest;dropTarget=0;labelBackgroundColor=none;strokeColor=#788AA3;fontColor=#46495D;" vertex="1" parent="suNme6-eA1xpTHc4A4N6-82">
          <mxGeometry y="186" width="160" height="26" as="geometry" />
        </mxCell>
        <mxCell id="Vb2O8qSX6tOqTRUZdygF-35" value="" style="shape=partialRectangle;top=0;left=0;bottom=0;html=1;fillColor=none;align=left;verticalAlign=top;spacingLeft=4;spacingRight=4;whiteSpace=wrap;overflow=hidden;rotatable=0;points=[];portConstraint=eastwest;part=1;labelBackgroundColor=none;strokeColor=#788AA3;fontColor=#46495D;" vertex="1" connectable="0" parent="Vb2O8qSX6tOqTRUZdygF-34">
          <mxGeometry width="30" height="26" as="geometry" />
        </mxCell>
        <mxCell id="suNme6-eA1xpTHc4A4N6-87" value="" style="shape=partialRectangle;top=0;left=0;right=0;bottom=0;html=1;align=left;verticalAlign=top;fillColor=none;spacingLeft=34;spacingRight=4;whiteSpace=wrap;overflow=hidden;rotatable=0;points=[[0,0.5],[1,0.5]];portConstraint=eastwest;dropTarget=0;labelBackgroundColor=none;strokeColor=#788AA3;fontColor=#46495D;" parent="suNme6-eA1xpTHc4A4N6-82" vertex="1">
          <mxGeometry y="212" width="160" height="10" as="geometry" />
        </mxCell>
        <mxCell id="suNme6-eA1xpTHc4A4N6-88" value="" style="shape=partialRectangle;top=0;left=0;bottom=0;html=1;fillColor=none;align=left;verticalAlign=top;spacingLeft=4;spacingRight=4;whiteSpace=wrap;overflow=hidden;rotatable=0;points=[];portConstraint=eastwest;part=1;labelBackgroundColor=none;strokeColor=#788AA3;fontColor=#46495D;" parent="suNme6-eA1xpTHc4A4N6-87" vertex="1" connectable="0">
          <mxGeometry width="30" height="10" as="geometry" />
        </mxCell>
        <mxCell id="suNme6-eA1xpTHc4A4N6-97" value="" style="edgeStyle=entityRelationEdgeStyle;fontSize=12;html=1;endArrow=ERoneToMany;rounded=0;" parent="1" source="suNme6-eA1xpTHc4A4N6-64" target="suNme6-eA1xpTHc4A4N6-85" edge="1">
          <mxGeometry width="100" height="100" relative="1" as="geometry">
            <mxPoint x="-170" y="-426" as="sourcePoint" />
            <mxPoint x="-70" y="-526" as="targetPoint" />
            <Array as="points">
              <mxPoint x="-200" y="-646" />
            </Array>
          </mxGeometry>
        </mxCell>
        <mxCell id="BrqN8miJ3yOVcBNKm5Y2-1" value="회사코드관리" style="swimlane;html=1;fontStyle=0;childLayout=stackLayout;horizontal=1;startSize=26;fillColor=#B2C9AB;horizontalStack=0;resizeParent=1;resizeLast=0;collapsible=1;marginBottom=0;swimlaneFillColor=#ffffff;align=center;rounded=0;shadow=0;comic=0;labelBackgroundColor=none;strokeWidth=1;fontFamily=Verdana;fontSize=14;strokeColor=#788AA3;fontColor=#46495D;" parent="1" vertex="1">
          <mxGeometry x="-230" y="-170" width="160" height="96" as="geometry" />
        </mxCell>
        <mxCell id="BrqN8miJ3yOVcBNKm5Y2-2" value="HQ 코드" style="shape=partialRectangle;top=0;left=0;right=0;bottom=1;html=1;align=left;verticalAlign=middle;fillColor=none;spacingLeft=34;spacingRight=4;whiteSpace=wrap;overflow=hidden;rotatable=0;points=[[0,0.5],[1,0.5]];portConstraint=eastwest;dropTarget=0;fontStyle=5;labelBackgroundColor=none;strokeColor=#788AA3;fontColor=#46495D;" parent="BrqN8miJ3yOVcBNKm5Y2-1" vertex="1">
          <mxGeometry y="26" width="160" height="30" as="geometry" />
        </mxCell>
        <mxCell id="BrqN8miJ3yOVcBNKm5Y2-3" value="PK" style="shape=partialRectangle;top=0;left=0;bottom=0;html=1;fillColor=none;align=left;verticalAlign=middle;spacingLeft=4;spacingRight=4;whiteSpace=wrap;overflow=hidden;rotatable=0;points=[];portConstraint=eastwest;part=1;labelBackgroundColor=none;strokeColor=#788AA3;fontColor=#46495D;" parent="BrqN8miJ3yOVcBNKm5Y2-2" vertex="1" connectable="0">
          <mxGeometry width="30" height="30" as="geometry" />
        </mxCell>
        <mxCell id="BrqN8miJ3yOVcBNKm5Y2-4" value="지점 코드" style="shape=partialRectangle;top=0;left=0;right=0;bottom=1;html=1;align=left;verticalAlign=middle;fillColor=none;spacingLeft=34;spacingRight=4;whiteSpace=wrap;overflow=hidden;rotatable=0;points=[[0,0.5],[1,0.5]];portConstraint=eastwest;dropTarget=0;fontStyle=5;labelBackgroundColor=none;strokeColor=#788AA3;fontColor=#46495D;" parent="BrqN8miJ3yOVcBNKm5Y2-1" vertex="1">
          <mxGeometry y="56" width="160" height="30" as="geometry" />
        </mxCell>
        <mxCell id="BrqN8miJ3yOVcBNKm5Y2-5" value="PK" style="shape=partialRectangle;top=0;left=0;bottom=0;html=1;fillColor=none;align=left;verticalAlign=middle;spacingLeft=4;spacingRight=4;whiteSpace=wrap;overflow=hidden;rotatable=0;points=[];portConstraint=eastwest;part=1;labelBackgroundColor=none;strokeColor=#788AA3;fontColor=#46495D;" parent="BrqN8miJ3yOVcBNKm5Y2-4" vertex="1" connectable="0">
          <mxGeometry width="30" height="30" as="geometry" />
        </mxCell>
        <mxCell id="BrqN8miJ3yOVcBNKm5Y2-6" value="" style="shape=partialRectangle;top=0;left=0;right=0;bottom=0;html=1;align=left;verticalAlign=top;fillColor=none;spacingLeft=34;spacingRight=4;whiteSpace=wrap;overflow=hidden;rotatable=0;points=[[0,0.5],[1,0.5]];portConstraint=eastwest;dropTarget=0;labelBackgroundColor=none;strokeColor=#788AA3;fontColor=#46495D;" parent="BrqN8miJ3yOVcBNKm5Y2-1" vertex="1">
          <mxGeometry y="86" width="160" height="10" as="geometry" />
        </mxCell>
        <mxCell id="BrqN8miJ3yOVcBNKm5Y2-7" value="" style="shape=partialRectangle;top=0;left=0;bottom=0;html=1;fillColor=none;align=left;verticalAlign=top;spacingLeft=4;spacingRight=4;whiteSpace=wrap;overflow=hidden;rotatable=0;points=[];portConstraint=eastwest;part=1;labelBackgroundColor=none;strokeColor=#788AA3;fontColor=#46495D;" parent="BrqN8miJ3yOVcBNKm5Y2-6" vertex="1" connectable="0">
          <mxGeometry width="30" height="10" as="geometry" />
        </mxCell>
        <mxCell id="BrqN8miJ3yOVcBNKm5Y2-8" value="" style="edgeStyle=entityRelationEdgeStyle;fontSize=12;html=1;endArrow=ERoneToMany;rounded=0;" parent="1" source="BrqN8miJ3yOVcBNKm5Y2-4" target="s8aTRHkVXZxyGGqHwzvx-163" edge="1">
          <mxGeometry width="100" height="100" relative="1" as="geometry">
            <mxPoint x="420" y="-173" as="sourcePoint" />
            <mxPoint x="330" y="125" as="targetPoint" />
            <Array as="points">
              <mxPoint x="290" y="-170" />
            </Array>
          </mxGeometry>
        </mxCell>
        <mxCell id="BrqN8miJ3yOVcBNKm5Y2-9" value="&lt;div&gt;&lt;font&gt;&lt;br&gt;&lt;/font&gt;&lt;/div&gt;&lt;ul&gt;&lt;li&gt;CRM 또는 룰루어드민 사이트에서 CMS 사이트 진입 시 정의된 entryPoint로 redirect 하여 로그인 예정&lt;/li&gt;&lt;li&gt;redirect 요청에는 SSO jwt 토큰, HQ코드, 지점코드가 포함 됨.&lt;br&gt;&lt;/li&gt;&lt;li&gt;요청에 포함된 jwt token 검증 성공 시&lt;/li&gt;&lt;ul&gt;&lt;li&gt;토큰에 포함된 계정ID 및 HQ/지점코드 정보를 사용중인 인증방식으로 관리(세션 or 토큰)&lt;/li&gt;&lt;li&gt;&quot;회사코드관리&quot; 테이블에 HQ코드 및 지점코드 저장(insert)&lt;/li&gt;&lt;li&gt;미등록 사용자인 경우 &quot;사용자관리&quot; 테이블에 계정ID 저장(insert)&lt;/li&gt;&lt;/ul&gt;&lt;li&gt;회사코드 정보&lt;/li&gt;&lt;ul&gt;&lt;li&gt;HQ코드 == 지점코드&amp;nbsp; -&amp;gt; HQ(본부)&lt;/li&gt;&lt;li&gt;HQ코드 != 지점코드 -&amp;gt; 지점&lt;/li&gt;&lt;/ul&gt;&lt;/ul&gt;" style="text;html=1;whiteSpace=wrap;verticalAlign=middle;overflow=hidden;labelBackgroundColor=default;fillColor=default;" parent="1" vertex="1">
          <mxGeometry x="-610" y="-340" width="600" height="160" as="geometry" />
        </mxCell>
        <mxCell id="Vb2O8qSX6tOqTRUZdygF-42" value="시술 대상자" style="swimlane;html=1;fontStyle=0;childLayout=stackLayout;horizontal=1;startSize=26;fillColor=#B2C9AB;horizontalStack=0;resizeParent=1;resizeLast=0;collapsible=1;marginBottom=0;swimlaneFillColor=#ffffff;align=center;rounded=0;shadow=0;comic=0;labelBackgroundColor=none;strokeWidth=1;fontFamily=Verdana;fontSize=14;strokeColor=#788AA3;fontColor=#46495D;" vertex="1" parent="1">
          <mxGeometry x="510" y="-800" width="280" height="482" as="geometry" />
        </mxCell>
        <mxCell id="Vb2O8qSX6tOqTRUZdygF-43" value="시술ID" style="shape=partialRectangle;top=0;left=0;right=0;bottom=1;html=1;align=left;verticalAlign=middle;fillColor=none;spacingLeft=34;spacingRight=4;whiteSpace=wrap;overflow=hidden;rotatable=0;points=[[0,0.5],[1,0.5]];portConstraint=eastwest;dropTarget=0;fontStyle=5;labelBackgroundColor=none;strokeColor=#788AA3;fontColor=#46495D;" vertex="1" parent="Vb2O8qSX6tOqTRUZdygF-42">
          <mxGeometry y="26" width="280" height="30" as="geometry" />
        </mxCell>
        <mxCell id="Vb2O8qSX6tOqTRUZdygF-44" value="PK, FK" style="shape=partialRectangle;top=0;left=0;bottom=0;html=1;fillColor=none;align=left;verticalAlign=middle;spacingLeft=4;spacingRight=4;whiteSpace=wrap;overflow=hidden;rotatable=0;points=[];portConstraint=eastwest;part=1;labelBackgroundColor=none;strokeColor=#788AA3;fontColor=#46495D;" vertex="1" connectable="0" parent="Vb2O8qSX6tOqTRUZdygF-43">
          <mxGeometry width="30" height="30" as="geometry" />
        </mxCell>
        <mxCell id="Vb2O8qSX6tOqTRUZdygF-45" value="성별&amp;nbsp;- 다중옵션" style="shape=partialRectangle;top=0;left=0;right=0;bottom=0;html=1;align=left;verticalAlign=top;fillColor=none;spacingLeft=34;spacingRight=4;whiteSpace=wrap;overflow=hidden;rotatable=0;points=[[0,0.5],[1,0.5]];portConstraint=eastwest;dropTarget=0;labelBackgroundColor=none;strokeColor=#788AA3;fontColor=#46495D;" vertex="1" parent="Vb2O8qSX6tOqTRUZdygF-42">
          <mxGeometry y="56" width="280" height="26" as="geometry" />
        </mxCell>
        <mxCell id="Vb2O8qSX6tOqTRUZdygF-46" value="" style="shape=partialRectangle;top=0;left=0;bottom=0;html=1;fillColor=none;align=left;verticalAlign=top;spacingLeft=4;spacingRight=4;whiteSpace=wrap;overflow=hidden;rotatable=0;points=[];portConstraint=eastwest;part=1;labelBackgroundColor=none;strokeColor=#788AA3;fontColor=#46495D;" vertex="1" connectable="0" parent="Vb2O8qSX6tOqTRUZdygF-45">
          <mxGeometry width="30" height="26" as="geometry" />
        </mxCell>
        <mxCell id="Vb2O8qSX6tOqTRUZdygF-47" value="연령 그룹&amp;nbsp;- 다중옵션" style="shape=partialRectangle;top=0;left=0;right=0;bottom=0;html=1;align=left;verticalAlign=top;fillColor=none;spacingLeft=34;spacingRight=4;whiteSpace=wrap;overflow=hidden;rotatable=0;points=[[0,0.5],[1,0.5]];portConstraint=eastwest;dropTarget=0;labelBackgroundColor=none;strokeColor=#788AA3;fontColor=#46495D;" vertex="1" parent="Vb2O8qSX6tOqTRUZdygF-42">
          <mxGeometry y="82" width="280" height="26" as="geometry" />
        </mxCell>
        <mxCell id="Vb2O8qSX6tOqTRUZdygF-48" value="" style="shape=partialRectangle;top=0;left=0;bottom=0;html=1;fillColor=none;align=left;verticalAlign=top;spacingLeft=4;spacingRight=4;whiteSpace=wrap;overflow=hidden;rotatable=0;points=[];portConstraint=eastwest;part=1;labelBackgroundColor=none;strokeColor=#788AA3;fontColor=#46495D;" vertex="1" connectable="0" parent="Vb2O8qSX6tOqTRUZdygF-47">
          <mxGeometry width="30" height="26" as="geometry" />
        </mxCell>
        <mxCell id="Vb2O8qSX6tOqTRUZdygF-162" value="피부타입(ex. DS, NS, OS, ...)&amp;nbsp;- 다중옵션" style="shape=partialRectangle;top=0;left=0;right=0;bottom=0;html=1;align=left;verticalAlign=top;fillColor=none;spacingLeft=34;spacingRight=4;whiteSpace=wrap;overflow=hidden;rotatable=0;points=[[0,0.5],[1,0.5]];portConstraint=eastwest;dropTarget=0;labelBackgroundColor=none;strokeColor=#788AA3;fontColor=#46495D;" vertex="1" parent="Vb2O8qSX6tOqTRUZdygF-42">
          <mxGeometry y="108" width="280" height="26" as="geometry" />
        </mxCell>
        <mxCell id="Vb2O8qSX6tOqTRUZdygF-163" value="" style="shape=partialRectangle;top=0;left=0;bottom=0;html=1;fillColor=none;align=left;verticalAlign=top;spacingLeft=4;spacingRight=4;whiteSpace=wrap;overflow=hidden;rotatable=0;points=[];portConstraint=eastwest;part=1;labelBackgroundColor=none;strokeColor=#788AA3;fontColor=#46495D;" vertex="1" connectable="0" parent="Vb2O8qSX6tOqTRUZdygF-162">
          <mxGeometry width="30" height="26" as="geometry" />
        </mxCell>
        <mxCell id="Vb2O8qSX6tOqTRUZdygF-51" value="피부타입 옵션1 - 다중옵션" style="shape=partialRectangle;top=0;left=0;right=0;bottom=0;html=1;align=left;verticalAlign=top;fillColor=none;spacingLeft=34;spacingRight=4;whiteSpace=wrap;overflow=hidden;rotatable=0;points=[[0,0.5],[1,0.5]];portConstraint=eastwest;dropTarget=0;labelBackgroundColor=none;strokeColor=#788AA3;fontColor=#46495D;" vertex="1" parent="Vb2O8qSX6tOqTRUZdygF-42">
          <mxGeometry y="134" width="280" height="26" as="geometry" />
        </mxCell>
        <mxCell id="Vb2O8qSX6tOqTRUZdygF-52" value="" style="shape=partialRectangle;top=0;left=0;bottom=0;html=1;fillColor=none;align=left;verticalAlign=top;spacingLeft=4;spacingRight=4;whiteSpace=wrap;overflow=hidden;rotatable=0;points=[];portConstraint=eastwest;part=1;labelBackgroundColor=none;strokeColor=#788AA3;fontColor=#46495D;" vertex="1" connectable="0" parent="Vb2O8qSX6tOqTRUZdygF-51">
          <mxGeometry width="30" height="26" as="geometry" />
        </mxCell>
        <mxCell id="Vb2O8qSX6tOqTRUZdygF-53" value="피부타입 옵션2&amp;nbsp;- 다중옵션" style="shape=partialRectangle;top=0;left=0;right=0;bottom=0;html=1;align=left;verticalAlign=top;fillColor=none;spacingLeft=34;spacingRight=4;whiteSpace=wrap;overflow=hidden;rotatable=0;points=[[0,0.5],[1,0.5]];portConstraint=eastwest;dropTarget=0;labelBackgroundColor=none;strokeColor=#788AA3;fontColor=#46495D;" vertex="1" parent="Vb2O8qSX6tOqTRUZdygF-42">
          <mxGeometry y="160" width="280" height="26" as="geometry" />
        </mxCell>
        <mxCell id="Vb2O8qSX6tOqTRUZdygF-54" value="" style="shape=partialRectangle;top=0;left=0;bottom=0;html=1;fillColor=none;align=left;verticalAlign=top;spacingLeft=4;spacingRight=4;whiteSpace=wrap;overflow=hidden;rotatable=0;points=[];portConstraint=eastwest;part=1;labelBackgroundColor=none;strokeColor=#788AA3;fontColor=#46495D;" vertex="1" connectable="0" parent="Vb2O8qSX6tOqTRUZdygF-53">
          <mxGeometry width="30" height="26" as="geometry" />
        </mxCell>
        <mxCell id="Vb2O8qSX6tOqTRUZdygF-55" value="피부타입 옵션3&amp;nbsp;- 다중옵션" style="shape=partialRectangle;top=0;left=0;right=0;bottom=0;html=1;align=left;verticalAlign=top;fillColor=none;spacingLeft=34;spacingRight=4;whiteSpace=wrap;overflow=hidden;rotatable=0;points=[[0,0.5],[1,0.5]];portConstraint=eastwest;dropTarget=0;labelBackgroundColor=none;strokeColor=#788AA3;fontColor=#46495D;" vertex="1" parent="Vb2O8qSX6tOqTRUZdygF-42">
          <mxGeometry y="186" width="280" height="26" as="geometry" />
        </mxCell>
        <mxCell id="Vb2O8qSX6tOqTRUZdygF-56" value="" style="shape=partialRectangle;top=0;left=0;bottom=0;html=1;fillColor=none;align=left;verticalAlign=top;spacingLeft=4;spacingRight=4;whiteSpace=wrap;overflow=hidden;rotatable=0;points=[];portConstraint=eastwest;part=1;labelBackgroundColor=none;strokeColor=#788AA3;fontColor=#46495D;" vertex="1" connectable="0" parent="Vb2O8qSX6tOqTRUZdygF-55">
          <mxGeometry width="30" height="26" as="geometry" />
        </mxCell>
        <mxCell id="Vb2O8qSX6tOqTRUZdygF-57" value="트러블(상/중/하)" style="shape=partialRectangle;top=0;left=0;right=0;bottom=0;html=1;align=left;verticalAlign=top;fillColor=none;spacingLeft=34;spacingRight=4;whiteSpace=wrap;overflow=hidden;rotatable=0;points=[[0,0.5],[1,0.5]];portConstraint=eastwest;dropTarget=0;labelBackgroundColor=none;strokeColor=#788AA3;fontColor=#46495D;" vertex="1" parent="Vb2O8qSX6tOqTRUZdygF-42">
          <mxGeometry y="212" width="280" height="26" as="geometry" />
        </mxCell>
        <mxCell id="Vb2O8qSX6tOqTRUZdygF-58" value="" style="shape=partialRectangle;top=0;left=0;bottom=0;html=1;fillColor=none;align=left;verticalAlign=top;spacingLeft=4;spacingRight=4;whiteSpace=wrap;overflow=hidden;rotatable=0;points=[];portConstraint=eastwest;part=1;labelBackgroundColor=none;strokeColor=#788AA3;fontColor=#46495D;" vertex="1" connectable="0" parent="Vb2O8qSX6tOqTRUZdygF-57">
          <mxGeometry width="30" height="26" as="geometry" />
        </mxCell>
        <mxCell id="Vb2O8qSX6tOqTRUZdygF-59" value="모공(상/중/하)" style="shape=partialRectangle;top=0;left=0;right=0;bottom=0;html=1;align=left;verticalAlign=top;fillColor=none;spacingLeft=34;spacingRight=4;whiteSpace=wrap;overflow=hidden;rotatable=0;points=[[0,0.5],[1,0.5]];portConstraint=eastwest;dropTarget=0;labelBackgroundColor=none;strokeColor=#788AA3;fontColor=#46495D;" vertex="1" parent="Vb2O8qSX6tOqTRUZdygF-42">
          <mxGeometry y="238" width="280" height="26" as="geometry" />
        </mxCell>
        <mxCell id="Vb2O8qSX6tOqTRUZdygF-60" value="" style="shape=partialRectangle;top=0;left=0;bottom=0;html=1;fillColor=none;align=left;verticalAlign=top;spacingLeft=4;spacingRight=4;whiteSpace=wrap;overflow=hidden;rotatable=0;points=[];portConstraint=eastwest;part=1;labelBackgroundColor=none;strokeColor=#788AA3;fontColor=#46495D;" vertex="1" connectable="0" parent="Vb2O8qSX6tOqTRUZdygF-59">
          <mxGeometry width="30" height="26" as="geometry" />
        </mxCell>
        <mxCell id="Vb2O8qSX6tOqTRUZdygF-61" value="다크서클(상/중/하)" style="shape=partialRectangle;top=0;left=0;right=0;bottom=0;html=1;align=left;verticalAlign=top;fillColor=none;spacingLeft=34;spacingRight=4;whiteSpace=wrap;overflow=hidden;rotatable=0;points=[[0,0.5],[1,0.5]];portConstraint=eastwest;dropTarget=0;labelBackgroundColor=none;strokeColor=#788AA3;fontColor=#46495D;" vertex="1" parent="Vb2O8qSX6tOqTRUZdygF-42">
          <mxGeometry y="264" width="280" height="26" as="geometry" />
        </mxCell>
        <mxCell id="Vb2O8qSX6tOqTRUZdygF-62" value="" style="shape=partialRectangle;top=0;left=0;bottom=0;html=1;fillColor=none;align=left;verticalAlign=top;spacingLeft=4;spacingRight=4;whiteSpace=wrap;overflow=hidden;rotatable=0;points=[];portConstraint=eastwest;part=1;labelBackgroundColor=none;strokeColor=#788AA3;fontColor=#46495D;" vertex="1" connectable="0" parent="Vb2O8qSX6tOqTRUZdygF-61">
          <mxGeometry width="30" height="26" as="geometry" />
        </mxCell>
        <mxCell id="Vb2O8qSX6tOqTRUZdygF-63" value="피지(상/중/하)" style="shape=partialRectangle;top=0;left=0;right=0;bottom=0;html=1;align=left;verticalAlign=top;fillColor=none;spacingLeft=34;spacingRight=4;whiteSpace=wrap;overflow=hidden;rotatable=0;points=[[0,0.5],[1,0.5]];portConstraint=eastwest;dropTarget=0;labelBackgroundColor=none;strokeColor=#788AA3;fontColor=#46495D;" vertex="1" parent="Vb2O8qSX6tOqTRUZdygF-42">
          <mxGeometry y="290" width="280" height="26" as="geometry" />
        </mxCell>
        <mxCell id="Vb2O8qSX6tOqTRUZdygF-64" value="" style="shape=partialRectangle;top=0;left=0;bottom=0;html=1;fillColor=none;align=left;verticalAlign=top;spacingLeft=4;spacingRight=4;whiteSpace=wrap;overflow=hidden;rotatable=0;points=[];portConstraint=eastwest;part=1;labelBackgroundColor=none;strokeColor=#788AA3;fontColor=#46495D;" vertex="1" connectable="0" parent="Vb2O8qSX6tOqTRUZdygF-63">
          <mxGeometry width="30" height="26" as="geometry" />
        </mxCell>
        <mxCell id="Vb2O8qSX6tOqTRUZdygF-65" value="광채(상/중/하)" style="shape=partialRectangle;top=0;left=0;right=0;bottom=0;html=1;align=left;verticalAlign=top;fillColor=none;spacingLeft=34;spacingRight=4;whiteSpace=wrap;overflow=hidden;rotatable=0;points=[[0,0.5],[1,0.5]];portConstraint=eastwest;dropTarget=0;labelBackgroundColor=none;strokeColor=#788AA3;fontColor=#46495D;" vertex="1" parent="Vb2O8qSX6tOqTRUZdygF-42">
          <mxGeometry y="316" width="280" height="26" as="geometry" />
        </mxCell>
        <mxCell id="Vb2O8qSX6tOqTRUZdygF-66" value="" style="shape=partialRectangle;top=0;left=0;bottom=0;html=1;fillColor=none;align=left;verticalAlign=top;spacingLeft=4;spacingRight=4;whiteSpace=wrap;overflow=hidden;rotatable=0;points=[];portConstraint=eastwest;part=1;labelBackgroundColor=none;strokeColor=#788AA3;fontColor=#46495D;" vertex="1" connectable="0" parent="Vb2O8qSX6tOqTRUZdygF-65">
          <mxGeometry width="30" height="26" as="geometry" />
        </mxCell>
        <mxCell id="Vb2O8qSX6tOqTRUZdygF-75" value="피부결 (상/중/하)" style="shape=partialRectangle;top=0;left=0;right=0;bottom=0;html=1;align=left;verticalAlign=top;fillColor=none;spacingLeft=34;spacingRight=4;whiteSpace=wrap;overflow=hidden;rotatable=0;points=[[0,0.5],[1,0.5]];portConstraint=eastwest;dropTarget=0;labelBackgroundColor=none;strokeColor=#788AA3;fontColor=#46495D;" vertex="1" parent="Vb2O8qSX6tOqTRUZdygF-42">
          <mxGeometry y="342" width="280" height="26" as="geometry" />
        </mxCell>
        <mxCell id="Vb2O8qSX6tOqTRUZdygF-76" value="" style="shape=partialRectangle;top=0;left=0;bottom=0;html=1;fillColor=none;align=left;verticalAlign=top;spacingLeft=4;spacingRight=4;whiteSpace=wrap;overflow=hidden;rotatable=0;points=[];portConstraint=eastwest;part=1;labelBackgroundColor=none;strokeColor=#788AA3;fontColor=#46495D;" vertex="1" connectable="0" parent="Vb2O8qSX6tOqTRUZdygF-75">
          <mxGeometry width="30" height="26" as="geometry" />
        </mxCell>
        <mxCell id="Vb2O8qSX6tOqTRUZdygF-73" value="탄력(상/중/하)" style="shape=partialRectangle;top=0;left=0;right=0;bottom=0;html=1;align=left;verticalAlign=top;fillColor=none;spacingLeft=34;spacingRight=4;whiteSpace=wrap;overflow=hidden;rotatable=0;points=[[0,0.5],[1,0.5]];portConstraint=eastwest;dropTarget=0;labelBackgroundColor=none;strokeColor=#788AA3;fontColor=#46495D;" vertex="1" parent="Vb2O8qSX6tOqTRUZdygF-42">
          <mxGeometry y="368" width="280" height="26" as="geometry" />
        </mxCell>
        <mxCell id="Vb2O8qSX6tOqTRUZdygF-74" value="" style="shape=partialRectangle;top=0;left=0;bottom=0;html=1;fillColor=none;align=left;verticalAlign=top;spacingLeft=4;spacingRight=4;whiteSpace=wrap;overflow=hidden;rotatable=0;points=[];portConstraint=eastwest;part=1;labelBackgroundColor=none;strokeColor=#788AA3;fontColor=#46495D;" vertex="1" connectable="0" parent="Vb2O8qSX6tOqTRUZdygF-73">
          <mxGeometry width="30" height="26" as="geometry" />
        </mxCell>
        <mxCell id="Vb2O8qSX6tOqTRUZdygF-71" value="홍조(상/중/하)" style="shape=partialRectangle;top=0;left=0;right=0;bottom=0;html=1;align=left;verticalAlign=top;fillColor=none;spacingLeft=34;spacingRight=4;whiteSpace=wrap;overflow=hidden;rotatable=0;points=[[0,0.5],[1,0.5]];portConstraint=eastwest;dropTarget=0;labelBackgroundColor=none;strokeColor=#788AA3;fontColor=#46495D;" vertex="1" parent="Vb2O8qSX6tOqTRUZdygF-42">
          <mxGeometry y="394" width="280" height="26" as="geometry" />
        </mxCell>
        <mxCell id="Vb2O8qSX6tOqTRUZdygF-72" value="" style="shape=partialRectangle;top=0;left=0;bottom=0;html=1;fillColor=none;align=left;verticalAlign=top;spacingLeft=4;spacingRight=4;whiteSpace=wrap;overflow=hidden;rotatable=0;points=[];portConstraint=eastwest;part=1;labelBackgroundColor=none;strokeColor=#788AA3;fontColor=#46495D;" vertex="1" connectable="0" parent="Vb2O8qSX6tOqTRUZdygF-71">
          <mxGeometry width="30" height="26" as="geometry" />
        </mxCell>
        <mxCell id="Vb2O8qSX6tOqTRUZdygF-69" value="주름(상/중/하)" style="shape=partialRectangle;top=0;left=0;right=0;bottom=0;html=1;align=left;verticalAlign=top;fillColor=none;spacingLeft=34;spacingRight=4;whiteSpace=wrap;overflow=hidden;rotatable=0;points=[[0,0.5],[1,0.5]];portConstraint=eastwest;dropTarget=0;labelBackgroundColor=none;strokeColor=#788AA3;fontColor=#46495D;" vertex="1" parent="Vb2O8qSX6tOqTRUZdygF-42">
          <mxGeometry y="420" width="280" height="26" as="geometry" />
        </mxCell>
        <mxCell id="Vb2O8qSX6tOqTRUZdygF-70" value="" style="shape=partialRectangle;top=0;left=0;bottom=0;html=1;fillColor=none;align=left;verticalAlign=top;spacingLeft=4;spacingRight=4;whiteSpace=wrap;overflow=hidden;rotatable=0;points=[];portConstraint=eastwest;part=1;labelBackgroundColor=none;strokeColor=#788AA3;fontColor=#46495D;" vertex="1" connectable="0" parent="Vb2O8qSX6tOqTRUZdygF-69">
          <mxGeometry width="30" height="26" as="geometry" />
        </mxCell>
        <mxCell id="Vb2O8qSX6tOqTRUZdygF-67" value="색소침착(상/중/하)" style="shape=partialRectangle;top=0;left=0;right=0;bottom=0;html=1;align=left;verticalAlign=top;fillColor=none;spacingLeft=34;spacingRight=4;whiteSpace=wrap;overflow=hidden;rotatable=0;points=[[0,0.5],[1,0.5]];portConstraint=eastwest;dropTarget=0;labelBackgroundColor=none;strokeColor=#788AA3;fontColor=#46495D;" vertex="1" parent="Vb2O8qSX6tOqTRUZdygF-42">
          <mxGeometry y="446" width="280" height="26" as="geometry" />
        </mxCell>
        <mxCell id="Vb2O8qSX6tOqTRUZdygF-68" value="" style="shape=partialRectangle;top=0;left=0;bottom=0;html=1;fillColor=none;align=left;verticalAlign=top;spacingLeft=4;spacingRight=4;whiteSpace=wrap;overflow=hidden;rotatable=0;points=[];portConstraint=eastwest;part=1;labelBackgroundColor=none;strokeColor=#788AA3;fontColor=#46495D;" vertex="1" connectable="0" parent="Vb2O8qSX6tOqTRUZdygF-67">
          <mxGeometry width="30" height="26" as="geometry" />
        </mxCell>
        <mxCell id="Vb2O8qSX6tOqTRUZdygF-77" value="" style="shape=partialRectangle;top=0;left=0;right=0;bottom=0;html=1;align=left;verticalAlign=top;fillColor=none;spacingLeft=34;spacingRight=4;whiteSpace=wrap;overflow=hidden;rotatable=0;points=[[0,0.5],[1,0.5]];portConstraint=eastwest;dropTarget=0;labelBackgroundColor=none;strokeColor=#788AA3;fontColor=#46495D;" vertex="1" parent="Vb2O8qSX6tOqTRUZdygF-42">
          <mxGeometry y="472" width="280" height="10" as="geometry" />
        </mxCell>
        <mxCell id="Vb2O8qSX6tOqTRUZdygF-78" value="" style="shape=partialRectangle;top=0;left=0;bottom=0;html=1;fillColor=none;align=left;verticalAlign=top;spacingLeft=4;spacingRight=4;whiteSpace=wrap;overflow=hidden;rotatable=0;points=[];portConstraint=eastwest;part=1;labelBackgroundColor=none;strokeColor=#788AA3;fontColor=#46495D;" vertex="1" connectable="0" parent="Vb2O8qSX6tOqTRUZdygF-77">
          <mxGeometry width="30" height="10" as="geometry" />
        </mxCell>
        <mxCell id="Vb2O8qSX6tOqTRUZdygF-79" value="" style="edgeStyle=entityRelationEdgeStyle;fontSize=12;html=1;endArrow=ERmandOne;startArrow=ERmandOne;rounded=0;strokeColor=#788AA3;fontColor=#46495D;fillColor=#B2C9AB;" edge="1" parent="1" source="suNme6-eA1xpTHc4A4N6-83" target="Vb2O8qSX6tOqTRUZdygF-43">
          <mxGeometry width="100" height="100" relative="1" as="geometry">
            <mxPoint x="320" y="-584" as="sourcePoint" />
            <mxPoint x="460" y="-584" as="targetPoint" />
          </mxGeometry>
        </mxCell>
        <mxCell id="Vb2O8qSX6tOqTRUZdygF-80" value="" style="edgeStyle=entityRelationEdgeStyle;fontSize=12;html=1;endArrow=ERoneToMany;rounded=0;strokeColor=#788AA3;fontColor=#46495D;fillColor=#B2C9AB;" edge="1" parent="1" source="s8aTRHkVXZxyGGqHwzvx-3" target="Vb2O8qSX6tOqTRUZdygF-137">
          <mxGeometry width="100" height="100" relative="1" as="geometry">
            <mxPoint x="720" y="125" as="sourcePoint" />
            <mxPoint x="920" y="25" as="targetPoint" />
          </mxGeometry>
        </mxCell>
        <mxCell id="Vb2O8qSX6tOqTRUZdygF-82" value="시술 추천 대상자" style="swimlane;html=1;fontStyle=0;childLayout=stackLayout;horizontal=1;startSize=26;fillColor=#B2C9AB;horizontalStack=0;resizeParent=1;resizeLast=0;collapsible=1;marginBottom=0;swimlaneFillColor=#ffffff;align=center;rounded=0;shadow=0;comic=0;labelBackgroundColor=none;strokeWidth=1;fontFamily=Verdana;fontSize=14;strokeColor=#788AA3;fontColor=#46495D;" vertex="1" parent="1">
          <mxGeometry x="510" y="-270" width="250" height="200" as="geometry" />
        </mxCell>
        <mxCell id="Vb2O8qSX6tOqTRUZdygF-83" value="시술ID" style="shape=partialRectangle;top=0;left=0;right=0;bottom=1;html=1;align=left;verticalAlign=middle;fillColor=none;spacingLeft=34;spacingRight=4;whiteSpace=wrap;overflow=hidden;rotatable=0;points=[[0,0.5],[1,0.5]];portConstraint=eastwest;dropTarget=0;fontStyle=5;labelBackgroundColor=none;strokeColor=#788AA3;fontColor=#46495D;" vertex="1" parent="Vb2O8qSX6tOqTRUZdygF-82">
          <mxGeometry y="26" width="250" height="30" as="geometry" />
        </mxCell>
        <mxCell id="Vb2O8qSX6tOqTRUZdygF-84" value="PK, FK" style="shape=partialRectangle;top=0;left=0;bottom=0;html=1;fillColor=none;align=left;verticalAlign=middle;spacingLeft=4;spacingRight=4;whiteSpace=wrap;overflow=hidden;rotatable=0;points=[];portConstraint=eastwest;part=1;labelBackgroundColor=none;strokeColor=#788AA3;fontColor=#46495D;" vertex="1" connectable="0" parent="Vb2O8qSX6tOqTRUZdygF-83">
          <mxGeometry width="31.5" height="30" as="geometry" />
        </mxCell>
        <mxCell id="Vb2O8qSX6tOqTRUZdygF-85" value="성별&amp;nbsp;- 다중옵션" style="shape=partialRectangle;top=0;left=0;right=0;bottom=0;html=1;align=left;verticalAlign=top;fillColor=none;spacingLeft=34;spacingRight=4;whiteSpace=wrap;overflow=hidden;rotatable=0;points=[[0,0.5],[1,0.5]];portConstraint=eastwest;dropTarget=0;labelBackgroundColor=none;strokeColor=#788AA3;fontColor=#46495D;" vertex="1" parent="Vb2O8qSX6tOqTRUZdygF-82">
          <mxGeometry y="56" width="250" height="26" as="geometry" />
        </mxCell>
        <mxCell id="Vb2O8qSX6tOqTRUZdygF-86" value="" style="shape=partialRectangle;top=0;left=0;bottom=0;html=1;fillColor=none;align=left;verticalAlign=top;spacingLeft=4;spacingRight=4;whiteSpace=wrap;overflow=hidden;rotatable=0;points=[];portConstraint=eastwest;part=1;labelBackgroundColor=none;strokeColor=#788AA3;fontColor=#46495D;" vertex="1" connectable="0" parent="Vb2O8qSX6tOqTRUZdygF-85">
          <mxGeometry width="30" height="26" as="geometry" />
        </mxCell>
        <mxCell id="Vb2O8qSX6tOqTRUZdygF-87" value="연령 그룹&amp;nbsp;- 다중옵션" style="shape=partialRectangle;top=0;left=0;right=0;bottom=0;html=1;align=left;verticalAlign=top;fillColor=none;spacingLeft=34;spacingRight=4;whiteSpace=wrap;overflow=hidden;rotatable=0;points=[[0,0.5],[1,0.5]];portConstraint=eastwest;dropTarget=0;labelBackgroundColor=none;strokeColor=#788AA3;fontColor=#46495D;" vertex="1" parent="Vb2O8qSX6tOqTRUZdygF-82">
          <mxGeometry y="82" width="250" height="26" as="geometry" />
        </mxCell>
        <mxCell id="Vb2O8qSX6tOqTRUZdygF-88" value="" style="shape=partialRectangle;top=0;left=0;bottom=0;html=1;fillColor=none;align=left;verticalAlign=top;spacingLeft=4;spacingRight=4;whiteSpace=wrap;overflow=hidden;rotatable=0;points=[];portConstraint=eastwest;part=1;labelBackgroundColor=none;strokeColor=#788AA3;fontColor=#46495D;" vertex="1" connectable="0" parent="Vb2O8qSX6tOqTRUZdygF-87">
          <mxGeometry width="30" height="26" as="geometry" />
        </mxCell>
        <mxCell id="Vb2O8qSX6tOqTRUZdygF-91" value="피부타입 옵션1 - 다중옵션" style="shape=partialRectangle;top=0;left=0;right=0;bottom=0;html=1;align=left;verticalAlign=top;fillColor=none;spacingLeft=34;spacingRight=4;whiteSpace=wrap;overflow=hidden;rotatable=0;points=[[0,0.5],[1,0.5]];portConstraint=eastwest;dropTarget=0;labelBackgroundColor=none;strokeColor=#788AA3;fontColor=#46495D;" vertex="1" parent="Vb2O8qSX6tOqTRUZdygF-82">
          <mxGeometry y="108" width="250" height="26" as="geometry" />
        </mxCell>
        <mxCell id="Vb2O8qSX6tOqTRUZdygF-92" value="" style="shape=partialRectangle;top=0;left=0;bottom=0;html=1;fillColor=none;align=left;verticalAlign=top;spacingLeft=4;spacingRight=4;whiteSpace=wrap;overflow=hidden;rotatable=0;points=[];portConstraint=eastwest;part=1;labelBackgroundColor=none;strokeColor=#788AA3;fontColor=#46495D;" vertex="1" connectable="0" parent="Vb2O8qSX6tOqTRUZdygF-91">
          <mxGeometry width="30" height="26" as="geometry" />
        </mxCell>
        <mxCell id="Vb2O8qSX6tOqTRUZdygF-93" value="피부타입 옵션2&amp;nbsp;- 다중옵션" style="shape=partialRectangle;top=0;left=0;right=0;bottom=0;html=1;align=left;verticalAlign=top;fillColor=none;spacingLeft=34;spacingRight=4;whiteSpace=wrap;overflow=hidden;rotatable=0;points=[[0,0.5],[1,0.5]];portConstraint=eastwest;dropTarget=0;labelBackgroundColor=none;strokeColor=#788AA3;fontColor=#46495D;" vertex="1" parent="Vb2O8qSX6tOqTRUZdygF-82">
          <mxGeometry y="134" width="250" height="26" as="geometry" />
        </mxCell>
        <mxCell id="Vb2O8qSX6tOqTRUZdygF-94" value="" style="shape=partialRectangle;top=0;left=0;bottom=0;html=1;fillColor=none;align=left;verticalAlign=top;spacingLeft=4;spacingRight=4;whiteSpace=wrap;overflow=hidden;rotatable=0;points=[];portConstraint=eastwest;part=1;labelBackgroundColor=none;strokeColor=#788AA3;fontColor=#46495D;" vertex="1" connectable="0" parent="Vb2O8qSX6tOqTRUZdygF-93">
          <mxGeometry width="30" height="26" as="geometry" />
        </mxCell>
        <mxCell id="Vb2O8qSX6tOqTRUZdygF-95" value="피부타입 옵션3&amp;nbsp;- 다중옵션" style="shape=partialRectangle;top=0;left=0;right=0;bottom=0;html=1;align=left;verticalAlign=top;fillColor=none;spacingLeft=34;spacingRight=4;whiteSpace=wrap;overflow=hidden;rotatable=0;points=[[0,0.5],[1,0.5]];portConstraint=eastwest;dropTarget=0;labelBackgroundColor=none;strokeColor=#788AA3;fontColor=#46495D;" vertex="1" parent="Vb2O8qSX6tOqTRUZdygF-82">
          <mxGeometry y="160" width="250" height="26" as="geometry" />
        </mxCell>
        <mxCell id="Vb2O8qSX6tOqTRUZdygF-96" value="" style="shape=partialRectangle;top=0;left=0;bottom=0;html=1;fillColor=none;align=left;verticalAlign=top;spacingLeft=4;spacingRight=4;whiteSpace=wrap;overflow=hidden;rotatable=0;points=[];portConstraint=eastwest;part=1;labelBackgroundColor=none;strokeColor=#788AA3;fontColor=#46495D;" vertex="1" connectable="0" parent="Vb2O8qSX6tOqTRUZdygF-95">
          <mxGeometry width="30" height="26" as="geometry" />
        </mxCell>
        <mxCell id="Vb2O8qSX6tOqTRUZdygF-97" value="" style="shape=partialRectangle;top=0;left=0;right=0;bottom=0;html=1;align=left;verticalAlign=top;fillColor=none;spacingLeft=34;spacingRight=4;whiteSpace=wrap;overflow=hidden;rotatable=0;points=[[0,0.5],[1,0.5]];portConstraint=eastwest;dropTarget=0;labelBackgroundColor=none;strokeColor=#788AA3;fontColor=#46495D;" vertex="1" parent="Vb2O8qSX6tOqTRUZdygF-82">
          <mxGeometry y="186" width="250" height="10" as="geometry" />
        </mxCell>
        <mxCell id="Vb2O8qSX6tOqTRUZdygF-98" value="" style="shape=partialRectangle;top=0;left=0;bottom=0;html=1;fillColor=none;align=left;verticalAlign=top;spacingLeft=4;spacingRight=4;whiteSpace=wrap;overflow=hidden;rotatable=0;points=[];portConstraint=eastwest;part=1;labelBackgroundColor=none;strokeColor=#788AA3;fontColor=#46495D;" vertex="1" connectable="0" parent="Vb2O8qSX6tOqTRUZdygF-97">
          <mxGeometry width="30" height="10" as="geometry" />
        </mxCell>
        <mxCell id="Vb2O8qSX6tOqTRUZdygF-99" value="" style="edgeStyle=entityRelationEdgeStyle;fontSize=12;html=1;endArrow=ERoneToMany;rounded=0;strokeColor=#788AA3;fontColor=#46495D;fillColor=#B2C9AB;" edge="1" parent="1" source="Vb2O8qSX6tOqTRUZdygF-85" target="Vb2O8qSX6tOqTRUZdygF-148">
          <mxGeometry width="100" height="100" relative="1" as="geometry">
            <mxPoint x="720" y="99" as="sourcePoint" />
            <mxPoint x="870" y="-399" as="targetPoint" />
          </mxGeometry>
        </mxCell>
        <mxCell id="Vb2O8qSX6tOqTRUZdygF-110" value="" style="edgeStyle=entityRelationEdgeStyle;fontSize=12;html=1;endArrow=ERoneToMany;rounded=0;strokeColor=#788AA3;fontColor=#46495D;fillColor=#B2C9AB;" edge="1" parent="1" source="Vb2O8qSX6tOqTRUZdygF-43" target="Vb2O8qSX6tOqTRUZdygF-148">
          <mxGeometry width="100" height="100" relative="1" as="geometry">
            <mxPoint x="860" y="-790" as="sourcePoint" />
            <mxPoint x="870" y="-399" as="targetPoint" />
            <Array as="points">
              <mxPoint x="1020" y="-554" />
              <mxPoint x="1010" y="-554" />
              <mxPoint x="930" y="-503" />
              <mxPoint x="1070" y="-552" />
              <mxPoint x="1070" y="-543" />
            </Array>
          </mxGeometry>
        </mxCell>
        <mxCell id="Vb2O8qSX6tOqTRUZdygF-111" value="" style="edgeStyle=entityRelationEdgeStyle;fontSize=12;html=1;endArrow=ERmandOne;startArrow=ERmandOne;rounded=0;strokeColor=#788AA3;fontColor=#46495D;fillColor=#B2C9AB;" edge="1" parent="1" source="suNme6-eA1xpTHc4A4N6-83" target="Vb2O8qSX6tOqTRUZdygF-83">
          <mxGeometry width="100" height="100" relative="1" as="geometry">
            <mxPoint x="420" y="-649" as="sourcePoint" />
            <mxPoint x="520" y="-749" as="targetPoint" />
          </mxGeometry>
        </mxCell>
        <mxCell id="Vb2O8qSX6tOqTRUZdygF-133" value="" style="edgeStyle=entityRelationEdgeStyle;fontSize=12;html=1;endArrow=ERoneToMany;rounded=0;strokeColor=#788AA3;fontColor=#46495D;fillColor=#B2C9AB;" edge="1" parent="1" source="s8aTRHkVXZxyGGqHwzvx-38" target="Vb2O8qSX6tOqTRUZdygF-137">
          <mxGeometry width="100" height="100" relative="1" as="geometry">
            <mxPoint x="720" y="71" as="sourcePoint" />
            <mxPoint x="820" y="360" as="targetPoint" />
          </mxGeometry>
        </mxCell>
        <mxCell id="Vb2O8qSX6tOqTRUZdygF-134" value="병원시술 검색필터(다중선택옵션)" style="swimlane;html=1;fontStyle=0;childLayout=stackLayout;horizontal=1;startSize=26;fillColor=#B2C9AB;horizontalStack=0;resizeParent=1;resizeLast=0;collapsible=1;marginBottom=0;swimlaneFillColor=#ffffff;align=center;rounded=0;shadow=0;comic=0;labelBackgroundColor=none;strokeWidth=1;fontFamily=Verdana;fontSize=14;strokeColor=#788AA3;fontColor=#46495D;" vertex="1" parent="1">
          <mxGeometry x="870" y="250" width="230" height="170" as="geometry" />
        </mxCell>
        <mxCell id="Vb2O8qSX6tOqTRUZdygF-135" value="seq" style="shape=partialRectangle;top=0;left=0;right=0;bottom=1;html=1;align=left;verticalAlign=middle;fillColor=none;spacingLeft=34;spacingRight=4;whiteSpace=wrap;overflow=hidden;rotatable=0;points=[[0,0.5],[1,0.5]];portConstraint=eastwest;dropTarget=0;fontStyle=5;labelBackgroundColor=none;strokeColor=#788AA3;fontColor=#46495D;" vertex="1" parent="Vb2O8qSX6tOqTRUZdygF-134">
          <mxGeometry y="26" width="230" height="30" as="geometry" />
        </mxCell>
        <mxCell id="Vb2O8qSX6tOqTRUZdygF-136" value="PK" style="shape=partialRectangle;top=0;left=0;bottom=0;html=1;fillColor=none;align=left;verticalAlign=middle;spacingLeft=4;spacingRight=4;whiteSpace=wrap;overflow=hidden;rotatable=0;points=[];portConstraint=eastwest;part=1;labelBackgroundColor=none;strokeColor=#788AA3;fontColor=#46495D;" vertex="1" connectable="0" parent="Vb2O8qSX6tOqTRUZdygF-135">
          <mxGeometry width="30" height="30" as="geometry" />
        </mxCell>
        <mxCell id="Vb2O8qSX6tOqTRUZdygF-137" value="병원시술ID" style="shape=partialRectangle;top=0;left=0;right=0;bottom=0;html=1;align=left;verticalAlign=top;fillColor=none;spacingLeft=34;spacingRight=4;whiteSpace=wrap;overflow=hidden;rotatable=0;points=[[0,0.5],[1,0.5]];portConstraint=eastwest;dropTarget=0;labelBackgroundColor=none;strokeColor=#788AA3;fontColor=#46495D;" vertex="1" parent="Vb2O8qSX6tOqTRUZdygF-134">
          <mxGeometry y="56" width="230" height="26" as="geometry" />
        </mxCell>
        <mxCell id="Vb2O8qSX6tOqTRUZdygF-138" value="FK" style="shape=partialRectangle;top=0;left=0;bottom=0;html=1;fillColor=none;align=left;verticalAlign=top;spacingLeft=4;spacingRight=4;whiteSpace=wrap;overflow=hidden;rotatable=0;points=[];portConstraint=eastwest;part=1;labelBackgroundColor=none;strokeColor=#788AA3;fontColor=#46495D;" vertex="1" connectable="0" parent="Vb2O8qSX6tOqTRUZdygF-137">
          <mxGeometry width="30" height="26" as="geometry" />
        </mxCell>
        <mxCell id="Vb2O8qSX6tOqTRUZdygF-158" value="테이블명" style="shape=partialRectangle;top=0;left=0;right=0;bottom=0;html=1;align=left;verticalAlign=top;fillColor=none;spacingLeft=34;spacingRight=4;whiteSpace=wrap;overflow=hidden;rotatable=0;points=[[0,0.5],[1,0.5]];portConstraint=eastwest;dropTarget=0;labelBackgroundColor=none;strokeColor=#788AA3;fontColor=#46495D;" vertex="1" parent="Vb2O8qSX6tOqTRUZdygF-134">
          <mxGeometry y="82" width="230" height="26" as="geometry" />
        </mxCell>
        <mxCell id="Vb2O8qSX6tOqTRUZdygF-159" value="" style="shape=partialRectangle;top=0;left=0;bottom=0;html=1;fillColor=none;align=left;verticalAlign=top;spacingLeft=4;spacingRight=4;whiteSpace=wrap;overflow=hidden;rotatable=0;points=[];portConstraint=eastwest;part=1;labelBackgroundColor=none;strokeColor=#788AA3;fontColor=#46495D;" vertex="1" connectable="0" parent="Vb2O8qSX6tOqTRUZdygF-158">
          <mxGeometry width="30" height="26" as="geometry" />
        </mxCell>
        <mxCell id="Vb2O8qSX6tOqTRUZdygF-139" value="컬럼명" style="shape=partialRectangle;top=0;left=0;right=0;bottom=0;html=1;align=left;verticalAlign=top;fillColor=none;spacingLeft=34;spacingRight=4;whiteSpace=wrap;overflow=hidden;rotatable=0;points=[[0,0.5],[1,0.5]];portConstraint=eastwest;dropTarget=0;labelBackgroundColor=none;strokeColor=#788AA3;fontColor=#46495D;" vertex="1" parent="Vb2O8qSX6tOqTRUZdygF-134">
          <mxGeometry y="108" width="230" height="26" as="geometry" />
        </mxCell>
        <mxCell id="Vb2O8qSX6tOqTRUZdygF-140" value="" style="shape=partialRectangle;top=0;left=0;bottom=0;html=1;fillColor=none;align=left;verticalAlign=top;spacingLeft=4;spacingRight=4;whiteSpace=wrap;overflow=hidden;rotatable=0;points=[];portConstraint=eastwest;part=1;labelBackgroundColor=none;strokeColor=#788AA3;fontColor=#46495D;" vertex="1" connectable="0" parent="Vb2O8qSX6tOqTRUZdygF-139">
          <mxGeometry width="30" height="26" as="geometry" />
        </mxCell>
        <mxCell id="Vb2O8qSX6tOqTRUZdygF-141" value="코드" style="shape=partialRectangle;top=0;left=0;right=0;bottom=0;html=1;align=left;verticalAlign=top;fillColor=none;spacingLeft=34;spacingRight=4;whiteSpace=wrap;overflow=hidden;rotatable=0;points=[[0,0.5],[1,0.5]];portConstraint=eastwest;dropTarget=0;labelBackgroundColor=none;strokeColor=#788AA3;fontColor=#46495D;" vertex="1" parent="Vb2O8qSX6tOqTRUZdygF-134">
          <mxGeometry y="134" width="230" height="26" as="geometry" />
        </mxCell>
        <mxCell id="Vb2O8qSX6tOqTRUZdygF-142" value="" style="shape=partialRectangle;top=0;left=0;bottom=0;html=1;fillColor=none;align=left;verticalAlign=top;spacingLeft=4;spacingRight=4;whiteSpace=wrap;overflow=hidden;rotatable=0;points=[];portConstraint=eastwest;part=1;labelBackgroundColor=none;strokeColor=#788AA3;fontColor=#46495D;" vertex="1" connectable="0" parent="Vb2O8qSX6tOqTRUZdygF-141">
          <mxGeometry width="30" height="26" as="geometry" />
        </mxCell>
        <mxCell id="Vb2O8qSX6tOqTRUZdygF-143" value="" style="shape=partialRectangle;top=0;left=0;right=0;bottom=0;html=1;align=left;verticalAlign=top;fillColor=none;spacingLeft=34;spacingRight=4;whiteSpace=wrap;overflow=hidden;rotatable=0;points=[[0,0.5],[1,0.5]];portConstraint=eastwest;dropTarget=0;labelBackgroundColor=none;strokeColor=#788AA3;fontColor=#46495D;" vertex="1" parent="Vb2O8qSX6tOqTRUZdygF-134">
          <mxGeometry y="160" width="230" height="10" as="geometry" />
        </mxCell>
        <mxCell id="Vb2O8qSX6tOqTRUZdygF-144" value="" style="shape=partialRectangle;top=0;left=0;bottom=0;html=1;fillColor=none;align=left;verticalAlign=top;spacingLeft=4;spacingRight=4;whiteSpace=wrap;overflow=hidden;rotatable=0;points=[];portConstraint=eastwest;part=1;labelBackgroundColor=none;strokeColor=#788AA3;fontColor=#46495D;" vertex="1" connectable="0" parent="Vb2O8qSX6tOqTRUZdygF-143">
          <mxGeometry width="30" height="10" as="geometry" />
        </mxCell>
        <mxCell id="Vb2O8qSX6tOqTRUZdygF-145" value="시술 검색필터(다중선택옵션)" style="swimlane;html=1;fontStyle=0;childLayout=stackLayout;horizontal=1;startSize=26;fillColor=#B2C9AB;horizontalStack=0;resizeParent=1;resizeLast=0;collapsible=1;marginBottom=0;swimlaneFillColor=#ffffff;align=center;rounded=0;shadow=0;comic=0;labelBackgroundColor=none;strokeWidth=1;fontFamily=Verdana;fontSize=14;strokeColor=#788AA3;fontColor=#46495D;" vertex="1" parent="1">
          <mxGeometry x="870" y="-476" width="230" height="170" as="geometry" />
        </mxCell>
        <mxCell id="Vb2O8qSX6tOqTRUZdygF-146" value="seq" style="shape=partialRectangle;top=0;left=0;right=0;bottom=1;html=1;align=left;verticalAlign=middle;fillColor=none;spacingLeft=34;spacingRight=4;whiteSpace=wrap;overflow=hidden;rotatable=0;points=[[0,0.5],[1,0.5]];portConstraint=eastwest;dropTarget=0;fontStyle=5;labelBackgroundColor=none;strokeColor=#788AA3;fontColor=#46495D;" vertex="1" parent="Vb2O8qSX6tOqTRUZdygF-145">
          <mxGeometry y="26" width="230" height="30" as="geometry" />
        </mxCell>
        <mxCell id="Vb2O8qSX6tOqTRUZdygF-147" value="PK" style="shape=partialRectangle;top=0;left=0;bottom=0;html=1;fillColor=none;align=left;verticalAlign=middle;spacingLeft=4;spacingRight=4;whiteSpace=wrap;overflow=hidden;rotatable=0;points=[];portConstraint=eastwest;part=1;labelBackgroundColor=none;strokeColor=#788AA3;fontColor=#46495D;" vertex="1" connectable="0" parent="Vb2O8qSX6tOqTRUZdygF-146">
          <mxGeometry width="30" height="30" as="geometry" />
        </mxCell>
        <mxCell id="Vb2O8qSX6tOqTRUZdygF-148" value="시술ID" style="shape=partialRectangle;top=0;left=0;right=0;bottom=0;html=1;align=left;verticalAlign=top;fillColor=none;spacingLeft=34;spacingRight=4;whiteSpace=wrap;overflow=hidden;rotatable=0;points=[[0,0.5],[1,0.5]];portConstraint=eastwest;dropTarget=0;labelBackgroundColor=none;strokeColor=#788AA3;fontColor=#46495D;" vertex="1" parent="Vb2O8qSX6tOqTRUZdygF-145">
          <mxGeometry y="56" width="230" height="26" as="geometry" />
        </mxCell>
        <mxCell id="Vb2O8qSX6tOqTRUZdygF-149" value="FK" style="shape=partialRectangle;top=0;left=0;bottom=0;html=1;fillColor=none;align=left;verticalAlign=top;spacingLeft=4;spacingRight=4;whiteSpace=wrap;overflow=hidden;rotatable=0;points=[];portConstraint=eastwest;part=1;labelBackgroundColor=none;strokeColor=#788AA3;fontColor=#46495D;" vertex="1" connectable="0" parent="Vb2O8qSX6tOqTRUZdygF-148">
          <mxGeometry width="30" height="26" as="geometry" />
        </mxCell>
        <mxCell id="Vb2O8qSX6tOqTRUZdygF-150" value="테이블명" style="shape=partialRectangle;top=0;left=0;right=0;bottom=0;html=1;align=left;verticalAlign=top;fillColor=none;spacingLeft=34;spacingRight=4;whiteSpace=wrap;overflow=hidden;rotatable=0;points=[[0,0.5],[1,0.5]];portConstraint=eastwest;dropTarget=0;labelBackgroundColor=none;strokeColor=#788AA3;fontColor=#46495D;" vertex="1" parent="Vb2O8qSX6tOqTRUZdygF-145">
          <mxGeometry y="82" width="230" height="26" as="geometry" />
        </mxCell>
        <mxCell id="Vb2O8qSX6tOqTRUZdygF-151" value="" style="shape=partialRectangle;top=0;left=0;bottom=0;html=1;fillColor=none;align=left;verticalAlign=top;spacingLeft=4;spacingRight=4;whiteSpace=wrap;overflow=hidden;rotatable=0;points=[];portConstraint=eastwest;part=1;labelBackgroundColor=none;strokeColor=#788AA3;fontColor=#46495D;" vertex="1" connectable="0" parent="Vb2O8qSX6tOqTRUZdygF-150">
          <mxGeometry width="30" height="26" as="geometry" />
        </mxCell>
        <mxCell id="Vb2O8qSX6tOqTRUZdygF-156" value="컬럼명" style="shape=partialRectangle;top=0;left=0;right=0;bottom=0;html=1;align=left;verticalAlign=top;fillColor=none;spacingLeft=34;spacingRight=4;whiteSpace=wrap;overflow=hidden;rotatable=0;points=[[0,0.5],[1,0.5]];portConstraint=eastwest;dropTarget=0;labelBackgroundColor=none;strokeColor=#788AA3;fontColor=#46495D;" vertex="1" parent="Vb2O8qSX6tOqTRUZdygF-145">
          <mxGeometry y="108" width="230" height="26" as="geometry" />
        </mxCell>
        <mxCell id="Vb2O8qSX6tOqTRUZdygF-157" value="" style="shape=partialRectangle;top=0;left=0;bottom=0;html=1;fillColor=none;align=left;verticalAlign=top;spacingLeft=4;spacingRight=4;whiteSpace=wrap;overflow=hidden;rotatable=0;points=[];portConstraint=eastwest;part=1;labelBackgroundColor=none;strokeColor=#788AA3;fontColor=#46495D;" vertex="1" connectable="0" parent="Vb2O8qSX6tOqTRUZdygF-156">
          <mxGeometry width="30" height="26" as="geometry" />
        </mxCell>
        <mxCell id="Vb2O8qSX6tOqTRUZdygF-152" value="코드" style="shape=partialRectangle;top=0;left=0;right=0;bottom=0;html=1;align=left;verticalAlign=top;fillColor=none;spacingLeft=34;spacingRight=4;whiteSpace=wrap;overflow=hidden;rotatable=0;points=[[0,0.5],[1,0.5]];portConstraint=eastwest;dropTarget=0;labelBackgroundColor=none;strokeColor=#788AA3;fontColor=#46495D;" vertex="1" parent="Vb2O8qSX6tOqTRUZdygF-145">
          <mxGeometry y="134" width="230" height="26" as="geometry" />
        </mxCell>
        <mxCell id="Vb2O8qSX6tOqTRUZdygF-153" value="" style="shape=partialRectangle;top=0;left=0;bottom=0;html=1;fillColor=none;align=left;verticalAlign=top;spacingLeft=4;spacingRight=4;whiteSpace=wrap;overflow=hidden;rotatable=0;points=[];portConstraint=eastwest;part=1;labelBackgroundColor=none;strokeColor=#788AA3;fontColor=#46495D;" vertex="1" connectable="0" parent="Vb2O8qSX6tOqTRUZdygF-152">
          <mxGeometry width="30" height="26" as="geometry" />
        </mxCell>
        <mxCell id="Vb2O8qSX6tOqTRUZdygF-154" value="" style="shape=partialRectangle;top=0;left=0;right=0;bottom=0;html=1;align=left;verticalAlign=top;fillColor=none;spacingLeft=34;spacingRight=4;whiteSpace=wrap;overflow=hidden;rotatable=0;points=[[0,0.5],[1,0.5]];portConstraint=eastwest;dropTarget=0;labelBackgroundColor=none;strokeColor=#788AA3;fontColor=#46495D;" vertex="1" parent="Vb2O8qSX6tOqTRUZdygF-145">
          <mxGeometry y="160" width="230" height="10" as="geometry" />
        </mxCell>
        <mxCell id="Vb2O8qSX6tOqTRUZdygF-155" value="" style="shape=partialRectangle;top=0;left=0;bottom=0;html=1;fillColor=none;align=left;verticalAlign=top;spacingLeft=4;spacingRight=4;whiteSpace=wrap;overflow=hidden;rotatable=0;points=[];portConstraint=eastwest;part=1;labelBackgroundColor=none;strokeColor=#788AA3;fontColor=#46495D;" vertex="1" connectable="0" parent="Vb2O8qSX6tOqTRUZdygF-154">
          <mxGeometry width="30" height="10" as="geometry" />
        </mxCell>
      </root>
    </mxGraphModel>
  </diagram>
</mxfile>
